<?xml version="1.0" encoding="UTF-8"?>
<svg version="1.1" xmlns="http://www.w3.org/2000/svg" width="1166" height="186">
<path d="M0 0 C0.84137512 -0.01283524 1.68275024 -0.02567047 2.54962158 -0.03889465 C3.46104919 -0.04628159 4.37247681 -0.05366852 5.31152344 -0.0612793 C6.24889343 -0.06935104 7.18626343 -0.07742279 8.15203857 -0.08573914 C10.13926338 -0.09958491 12.12651203 -0.11030485 14.11376953 -0.11816406 C17.14499389 -0.13535117 20.17512033 -0.17922969 23.20605469 -0.22338867 C25.13703625 -0.23351788 27.06802709 -0.24203327 28.99902344 -0.2487793 C29.90235413 -0.26628738 30.80568481 -0.28379547 31.73638916 -0.30183411 C37.30729354 -0.28274937 40.53563247 0.40984966 44.92089844 4.17700195 C46.57324219 5.98193359 46.57324219 5.98193359 47.85839844 7.8371582 C48.35436523 8.53969727 48.85033203 9.24223633 49.36132812 9.96606445 C49.87598633 10.71629883 50.39064453 11.4665332 50.92089844 12.23950195 C52.04994494 13.84578798 53.1801975 15.4512268 54.31152344 17.0559082 C54.89611328 17.89009277 55.48070312 18.72427734 56.08300781 19.58374023 C59.80691654 24.83817149 63.67311566 29.98904236 67.51464844 35.15771484 C68.07667969 35.91689209 68.63871094 36.67606934 69.21777344 37.45825195 C69.71631836 38.12920898 70.21486328 38.80016602 70.72851562 39.49145508 C71.92089844 41.17700195 71.92089844 41.17700195 72.92089844 43.17700195 C76.58625411 43.5258279 78.4697679 43.45051191 81.65917969 41.5168457 C87.10484113 36.43477926 89.4999721 33.132269 89.79589844 25.55200195 C89.80105469 24.27067383 89.80621094 22.9893457 89.81152344 21.66918945 C90.01821854 15.06970998 92.87524909 11.09480787 97.23339844 6.36450195 C104.20873781 -0.04052665 109.93936596 -0.15248627 119.20214844 -0.1237793 C123.97399952 0.26217925 128.18358102 0.78322188 131.99511719 3.84106445 C133.70136723 5.91500518 135.34939469 7.99867993 136.92089844 10.17700195 C137.35917969 10.77512695 137.79746094 11.37325195 138.24902344 11.98950195 C142.03032774 18.16740757 141.73000079 25.17295434 140.92089844 32.17700195 C138.96101931 38.89509031 134.5764716 42.91004925 129.35839844 47.36450195 C125.94707502 49.16319975 123.68804767 49.64149866 119.92089844 50.17700195 C110.79506397 51.50480524 106.55969258 56.30367892 100.92089844 63.17700195 C111.57325867 63.70718722 111.57325867 63.70718722 121.42871094 60.6574707 C123.02649442 58.89247732 124.46546383 57.05925022 125.92089844 55.17700195 C132.55088341 50.89513666 140.26117585 51.44512835 147.92089844 52.17700195 C155.38936301 54.13441545 160.83517085 59.88020674 164.85839844 66.23950195 C167.29134143 72.96050696 167.31514314 82.08927226 164.35839844 88.61450195 C161.07668088 93.99929202 156.26000705 99.54022218 150.19824219 101.73950195 C142.55517641 103.20780962 133.49229653 103.76656037 126.67749023 99.49951172 C124.90652178 98.166178 123.7018851 96.78342466 122.29199219 95.08325195 C119.08868496 91.82055953 116.46601471 91.43958449 111.99511719 91.29418945 C111.186875 91.29676758 110.37863281 91.2993457 109.54589844 91.30200195 C108.71445312 91.28137695 107.88300781 91.26075195 107.02636719 91.23950195 C104.99164188 91.19272666 102.95615684 91.18126874 100.92089844 91.17700195 C106.49123101 97.96687479 110.68256235 102.86049948 119.73339844 104.05200195 C126.79517307 105.06833676 132.07310412 107.56433243 136.54980469 113.2434082 C141.34119946 120.65573687 141.60003257 127.45497929 140.92089844 136.17700195 C140.0846139 139.29543647 138.82174793 141.58290147 136.92089844 144.17700195 C136.40011719 144.89887695 135.87933594 145.62075195 135.34277344 146.36450195 C131.55935003 151.13638733 129.02426447 152.87461004 122.92089844 154.17700195 C113.15094057 155.06800553 105.66084417 154.8807303 97.99511719 148.59887695 C94.15525937 145.06906976 90.95586845 141.40585046 89.92089844 136.17700195 C89.89032675 133.73960464 89.87064747 131.30206021 89.85839844 128.86450195 C89.51127285 121.27301635 87.115479 117.92915225 81.65917969 112.8371582 C78.32791159 110.81748782 76.74265508 110.3732198 72.92089844 111.17700195 C71.04674966 113.14280387 69.78189482 114.79007869 68.35839844 117.05200195 C67.49778586 118.33547144 66.63573206 119.61797536 65.77246094 120.8996582 C65.31645508 121.58946777 64.86044922 122.27927734 64.390625 122.98999023 C61.76831817 126.89208734 58.99510349 130.68541971 56.23339844 134.48950195 C55.39905273 135.64168213 55.39905273 135.64168213 54.54785156 136.81713867 C53.00882146 138.93951082 51.46595659 141.05901554 49.92089844 143.17700195 C48.81101562 144.69874023 48.81101562 144.69874023 47.67871094 146.2512207 C47.07800781 147.05172852 46.47730469 147.85223633 45.85839844 148.67700195 C45.12943359 149.6515332 45.12943359 149.6515332 44.38574219 150.64575195 C42.19541366 152.93537537 39.99050403 154.03601017 36.84107971 154.45115662 C36.1011528 154.46179642 35.36122589 154.47243622 34.59887695 154.48339844 C33.7544252 154.49938583 32.90997345 154.51537323 32.03993225 154.53184509 C30.68356911 154.53988914 30.68356911 154.53988914 29.29980469 154.5480957 C28.36289291 154.55712418 27.42598114 154.56615265 26.4606781 154.57545471 C24.48122346 154.58994719 22.50172103 154.59884146 20.5222168 154.60253906 C17.49738877 154.61444688 14.47459366 154.66365136 11.45019531 154.71411133 C9.52507504 154.72357465 7.59994227 154.73081012 5.67480469 154.7355957 C4.77258682 154.75512802 3.87036896 154.77466034 2.94081116 154.79478455 C-1.55915785 154.7625176 -3.44850166 154.67990757 -7.0715332 151.79052734 C-8.06527954 150.49683228 -8.06527954 150.49683228 -9.07910156 149.17700195 C-9.69785156 148.39325195 -10.31660156 147.60950195 -10.95410156 146.80200195 C-12.52778607 143.13007143 -12.07364256 141.02256046 -11.07910156 137.17700195 C-8.36878258 132.02123607 -5.18752371 127.47232954 -1.64160156 122.86450195 C3.3566422 116.28884215 8.23490567 109.63883781 13.03466797 102.91699219 C15.7577719 99.1177235 18.52452691 95.37118389 21.40917969 91.69262695 C21.96734375 90.97461914 22.52550781 90.25661133 23.10058594 89.5168457 C24.16001298 88.16088047 25.23103461 86.81386504 26.31542969 85.4777832 C28.47935124 82.69643838 29.80138624 80.68746082 30.61230469 77.22387695 C29.57595351 72.65690568 26.98326765 69.74645297 24.04589844 66.17700195 C22.83704555 64.65500952 21.63003319 63.13155355 20.42480469 61.60668945 C19.82555176 60.85484375 19.22629883 60.10299805 18.60888672 59.32836914 C16.30100987 56.38694438 14.12968249 53.36236011 11.98339844 50.30200195 C9.14692922 46.27438168 6.26999465 42.28309385 3.33105469 38.3293457 C2.70513428 37.48678223 2.07921387 36.64421875 1.43432617 35.77612305 C0.20656027 34.12693266 -1.02423542 32.47999202 -2.25854492 30.83569336 C-12.32480823 17.30249517 -12.32480823 17.30249517 -12.07910156 10.17700195 C-9.16413994 4.4033159 -6.78561143 0.09010426 0 0 Z " fill="#E0695B" transform="translate(328.0791015625,14.822998046875)"/>
<path d="M0 0 C9.16307615 -0.06991084 18.32605866 -0.1230178 27.4893446 -0.15543652 C31.74551591 -0.17100606 36.00150302 -0.19208231 40.25756836 -0.22631836 C44.3748941 -0.2592262 48.49204411 -0.27691827 52.60949135 -0.28463173 C54.17015659 -0.29011947 55.73081364 -0.30083328 57.29140282 -0.31719017 C72.51100106 -0.47017686 86.19115954 0.95714567 97.875 11.625 C98.57625 12.40875 99.2775 13.1925 100 14 C100.7425 14.680625 101.485 15.36125 102.25 16.0625 C104.0851527 18.0942762 104.61776714 19.32437 105 22 C105.66 22 106.32 22 107 22 C107.50833591 23.24663331 108.00631145 24.49749387 108.5 25.75 C108.7784375 26.44609375 109.056875 27.1421875 109.34375 27.859375 C110 30 110 30 110 34 C110.66 34 111.32 34 112 34 C113.44397535 47.12906819 112.09391053 56.85298259 107 69 C106.34 69 105.68 69 105 69 C103.49069817 72.3863251 103.49069817 72.3863251 103 76 C104.52834853 77.23568605 106.05765382 78.47027491 107.59765625 79.69140625 C109.34023014 81.31748495 109.82474344 82.63403644 110 85 C110.66 85 111.32 85 112 85 C113.4606285 87.64738916 114 88.89448334 114 92 C114.66 92 115.32 92 116 92 C117.97647435 98.60662144 118.33469301 104.68710514 118.3125 111.5625 C118.32861328 112.56474609 118.34472656 113.56699219 118.36132812 114.59960938 C118.36526013 120.57233252 117.75753443 124.69810711 115 130 C114.54625 131.19625 114.0925 132.3925 113.625 133.625 C109.34437307 142.51553285 99.4396424 149.01501521 90.31201172 152.29101562 C78.89690409 156.10084736 67.8095834 156.15112531 55.9140625 156.1328125 C54.36469508 156.1334872 52.81532776 156.13445861 51.26596069 156.13571167 C48.03683452 156.13717819 44.80773619 156.13506614 41.57861328 156.13037109 C37.43928147 156.12464559 33.3000141 156.12797715 29.16068459 156.13394356 C25.96942659 156.13755301 22.77818396 156.1364093 19.58692551 156.13381577 C18.0598894 156.13314905 16.53285189 156.13396601 15.00581741 156.13629532 C12.87835217 156.13883126 10.75099252 156.13496924 8.62353516 156.12939453 C7.41380035 156.12859894 6.20406555 156.12780334 4.95767212 156.12698364 C1.84674176 155.99342007 -0.175271 155.64705191 -2.65112305 153.70458984 C-4.31577565 151.60095102 -4.44373072 150.38662859 -4.58203125 147.7265625 C-4.62650391 146.9015625 -4.67097656 146.0765625 -4.71679688 145.2265625 C-4.74837891 144.36804688 -4.77996094 143.50953125 -4.8125 142.625 C-4.86341797 141.77421875 -4.91433594 140.9234375 -4.96679688 140.046875 C-5.21120008 134.72799858 -5.03662647 130.85707599 -1.85424805 126.39268494 C0.9735903 124.26875773 3.36805624 124.62842624 6.8671875 124.63110352 C7.56196701 124.62733704 8.25674652 124.62357056 8.97257996 124.61968994 C10.48179781 124.61325482 11.99105618 124.61359003 13.50027466 124.61987495 C15.89816192 124.62899434 18.29526846 124.61874863 20.69311523 124.60325623 C27.51072949 124.56320396 34.32828375 124.56193906 41.14599609 124.56420898 C45.31880054 124.56426044 49.49118923 124.54490627 53.66387939 124.51487541 C56.0097662 124.50414741 58.3548245 124.51612804 60.70068359 124.52870178 C68.7520709 124.51058344 76.94092863 124.39114057 84 120 C86.2625607 116.53108673 86.26882519 113.6038904 86.25 109.5 C86.25515625 108.3759375 86.2603125 107.251875 86.265625 106.09375 C86.0074178 103.08639558 85.69887891 101.4594881 84 99 C82.44188286 97.72004365 82.44188286 97.72004365 80.625 96.8125 C80.03976562 96.48894531 79.45453125 96.16539063 78.8515625 95.83203125 C74.65593451 93.94665411 70.77550165 93.86210595 66.19946289 93.82641602 C65.18650902 93.8163855 65.18650902 93.8163855 64.15309143 93.80615234 C62.69080953 93.79213583 61.22850619 93.78023105 59.76619148 93.77020454 C57.44987802 93.75374438 55.13372354 93.73050535 52.81748962 93.70530701 C46.23330654 93.63466454 39.64905961 93.57441849 33.06469727 93.52319336 C29.03347703 93.49135665 25.00244229 93.45007312 20.9713726 93.40299797 C19.43765033 93.38701071 17.90388541 93.37467405 16.37010384 93.36609077 C14.22318863 93.35390107 12.07670776 93.32973758 9.92993164 93.30297852 C8.70955704 93.29267105 7.48918243 93.28236359 6.23182678 93.27174377 C3.07823107 93.00657795 0.84200596 92.34898508 -2 91 C-2 90.34 -2 89.68 -2 89 C-2.66 89 -3.32 89 -4 89 C-5.2281641 85.17904503 -5.13285092 81.48826961 -5.125 77.5 C-5.12757813 76.1903125 -5.13015625 74.880625 -5.1328125 73.53125 C-4.88140243 66.84669988 -4.88140243 66.84669988 -2.35173035 64.41662598 C0.7147031 62.56947999 2.79926957 62.62168919 6.36987305 62.61523438 C8.30790047 62.60006775 8.30790047 62.60006775 10.28507996 62.58459473 C10.97335562 62.58615067 11.66163128 62.5877066 12.37076378 62.58930969 C14.53717264 62.59380279 16.70277093 62.5797437 18.86909485 62.56091309 C23.47521665 62.5241637 28.08125326 62.51044228 32.6875 62.5 C38.01113924 62.48788087 43.33438358 62.46607309 48.65784645 62.41999817 C50.7787895 62.4065383 52.8992192 62.41057987 55.02018738 62.41540527 C65.34493996 62.34245841 65.34493996 62.34245841 75 59 C76.92336969 56.97053147 76.92336969 56.97053147 78 55 C78.66 55 79.32 55 80 55 C80 49.39 80 43.78 80 38 C79.34 38 78.68 38 78 38 C77.4121875 37.071875 77.4121875 37.071875 76.8125 36.125 C74.24378508 33.1134032 71.82012506 32.88566855 68 32 C64.61050544 31.69228404 64.61050544 31.69228404 61.10253906 31.71289062 C60.45284653 31.70605759 59.80315399 31.69922455 59.1337738 31.69218445 C57.73703664 31.67869583 56.34025152 31.66957917 54.94345856 31.66447449 C52.73237745 31.65612444 50.52169741 31.6355688 48.31072998 31.61193848 C42.82611607 31.55578305 37.34140535 31.52026091 31.85662842 31.48431396 C27.20705077 31.45307686 22.55767292 31.41391974 17.90825653 31.36405945 C15.7306603 31.3440036 13.55321858 31.33567773 11.37554932 31.32775879 C10.05697937 31.31434448 8.73840942 31.30093018 7.37988281 31.28710938 C6.21741028 31.27981812 5.05493774 31.27252686 3.85723877 31.26501465 C1 31 1 31 -2 29 C-2 28.34 -2 27.68 -2 27 C-2.66 27 -3.32 27 -4 27 C-5.13172416 19.50232747 -6.17272706 11.38037447 -4 4 C-3.34 4 -2.68 4 -2 4 C-1.34 2.68 -0.68 1.36 0 0 Z " fill="#E06C5E" transform="translate(893,16)"/>
<path d="M0 0 C1.67352539 -0.00193359 1.67352539 -0.00193359 3.38085938 -0.00390625 C4.55583984 -0.00003906 5.73082031 0.00382813 6.94140625 0.0078125 C8.11251953 0.00394531 9.28363281 0.00007812 10.49023438 -0.00390625 C12.16569336 -0.00197266 12.16569336 -0.00197266 13.875 0 C14.9055249 0.00112793 15.9360498 0.00225586 16.99780273 0.00341797 C19.50390625 0.1328125 19.50390625 0.1328125 21.50390625 1.1328125 C21.50390625 1.7928125 21.50390625 2.4528125 21.50390625 3.1328125 C22.16390625 3.1328125 22.82390625 3.1328125 23.50390625 3.1328125 C24.01005923 4.40120776 24.50859724 5.67264352 25.00390625 6.9453125 C25.28234375 7.65300781 25.56078125 8.36070313 25.84765625 9.08984375 C26.50390625 11.1328125 26.50390625 11.1328125 26.50390625 14.1328125 C27.16390625 14.1328125 27.82390625 14.1328125 28.50390625 14.1328125 C29.49390625 19.0828125 29.49390625 19.0828125 30.50390625 24.1328125 C31.16390625 24.1328125 31.82390625 24.1328125 32.50390625 24.1328125 C33.00950533 25.56835275 33.50818115 27.0063327 34.00390625 28.4453125 C34.28234375 29.24582031 34.56078125 30.04632813 34.84765625 30.87109375 C35.50390625 33.1328125 35.50390625 33.1328125 35.50390625 36.1328125 C36.16390625 36.1328125 36.82390625 36.1328125 37.50390625 36.1328125 C38.49390625 41.0828125 38.49390625 41.0828125 39.50390625 46.1328125 C40.16390625 46.1328125 40.82390625 46.1328125 41.50390625 46.1328125 C41.75785156 46.91785156 42.01179687 47.70289063 42.2734375 48.51171875 C44.52071472 55.44529073 44.52071472 55.44529073 47.25390625 62.1953125 C48.50390625 65.1328125 48.50390625 65.1328125 48.50390625 68.1328125 C49.16390625 68.1328125 49.82390625 68.1328125 50.50390625 68.1328125 C50.75785156 68.99003906 51.01179687 69.84726563 51.2734375 70.73046875 C53.31697628 77.51930357 55.48436385 83.91151334 58.54296875 90.3046875 C60.73284855 94.99953771 62.06377427 98.96126176 62.50390625 104.1328125 C63.16390625 104.1328125 63.82390625 104.1328125 64.50390625 104.1328125 C71.50390625 121.15311707 71.50390625 121.15311707 71.50390625 126.1328125 C72.16390625 126.1328125 72.82390625 126.1328125 73.50390625 126.1328125 C74.00902869 127.73537358 74.50782252 129.33993042 75.00390625 130.9453125 C75.28234375 131.83863281 75.56078125 132.73195312 75.84765625 133.65234375 C76.50390625 136.1328125 76.50390625 136.1328125 76.50390625 139.1328125 C77.16390625 139.1328125 77.82390625 139.1328125 78.50390625 139.1328125 C80.92813439 148.11466496 80.92813439 148.11466496 79.25390625 152.1328125 C75.77926826 156.10382735 75.77926826 156.10382735 73.13943481 156.38170147 C72.14096527 156.3811567 71.14249573 156.38061193 70.11376953 156.38005066 C68.96958557 156.38424515 67.82540161 156.38843964 66.64654541 156.39276123 C65.38517761 156.38714172 64.12380981 156.38152222 62.82421875 156.37573242 C61.4872834 156.37680493 60.1503485 156.37874316 58.81341553 156.38148499 C55.1771063 156.38634144 51.54091938 156.37866772 47.90462494 156.36853194 C44.10454949 156.35976415 40.30447803 156.36150864 36.50439453 156.3618927 C30.12204943 156.36095546 23.7397518 156.35226353 17.35742188 156.33862305 C9.97178769 156.32289689 2.58620552 156.31762491 -4.7994442 156.3183586 C-11.89545796 156.31896839 -18.99145472 156.31386742 -26.08746338 156.30556679 C-29.11134982 156.3020305 -32.13523024 156.30020304 -35.15911865 156.29967308 C-38.71805483 156.29867049 -42.27694713 156.29258078 -45.83586884 156.28250694 C-47.77015229 156.27817965 -49.70444474 156.27875451 -51.63873291 156.27944946 C-53.35500885 156.27305199 -53.35500885 156.27305199 -55.10595703 156.26652527 C-56.60366135 156.2640115 -56.60366135 156.2640115 -58.13162231 156.26144695 C-60.49609375 156.1328125 -60.49609375 156.1328125 -62.49609375 155.1328125 C-62.49609375 154.4728125 -62.49609375 153.8128125 -62.49609375 153.1328125 C-63.15609375 153.1328125 -63.81609375 153.1328125 -64.49609375 153.1328125 C-65.99108288 150.14283425 -65.61186821 147.43238475 -65.49609375 144.1328125 C-65.16609375 143.1428125 -64.83609375 142.1528125 -64.49609375 141.1328125 C-63.83609375 141.1328125 -63.17609375 141.1328125 -62.49609375 141.1328125 C-62.39296875 140.1015625 -62.28984375 139.0703125 -62.18359375 138.0078125 C-61.26773616 132.84570606 -59.61363109 128.52052894 -55.49609375 125.1328125 C-52.46732298 124.85202173 -49.64656553 124.7542066 -46.6184082 124.79223633 C-45.25712799 124.79157921 -45.25712799 124.79157921 -43.86834717 124.79090881 C-40.86513849 124.79300081 -37.8624863 124.81635138 -34.859375 124.83984375 C-32.77858281 124.84543824 -30.69778668 124.84970903 -28.61698914 124.85270691 C-23.13749299 124.86416724 -17.65823499 124.89364477 -12.17883301 124.92681885 C-6.58865582 124.95749406 -0.9984402 124.9712068 4.59179688 124.98632812 C15.5626047 125.01851323 26.53323568 125.06972403 37.50390625 125.1328125 C37.50390625 123.8128125 37.50390625 122.4928125 37.50390625 121.1328125 C36.84390625 121.1328125 36.18390625 121.1328125 35.50390625 121.1328125 C34.99878381 119.53025142 34.49998998 117.92569458 34.00390625 116.3203125 C33.72546875 115.42699219 33.44703125 114.53367187 33.16015625 113.61328125 C32.50390625 111.1328125 32.50390625 111.1328125 32.50390625 108.1328125 C31.84390625 108.1328125 31.18390625 108.1328125 30.50390625 108.1328125 C29.84390625 104.8328125 29.18390625 101.5328125 28.50390625 98.1328125 C27.84390625 98.1328125 27.18390625 98.1328125 26.50390625 98.1328125 C25.99878381 96.53025142 25.49998998 94.92569458 25.00390625 93.3203125 C24.72546875 92.42699219 24.44703125 91.53367187 24.16015625 90.61328125 C23.50390625 88.1328125 23.50390625 88.1328125 23.50390625 85.1328125 C22.84390625 85.1328125 22.18390625 85.1328125 21.50390625 85.1328125 C21.32214844 84.48054688 21.14039063 83.82828125 20.953125 83.15625 C19.82385904 79.22987914 18.73980493 75.59553684 16.87890625 71.9453125 C15.27652627 68.66771709 14.86496901 65.7434401 14.50390625 62.1328125 C13.84390625 62.1328125 13.18390625 62.1328125 12.50390625 62.1328125 C11.85151467 60.74003233 11.20730073 59.34342038 10.56640625 57.9453125 C10.02693359 56.77935547 10.02693359 56.77935547 9.4765625 55.58984375 C8.49425184 53.10842446 7.94709081 50.75926414 7.50390625 48.1328125 C6.68785626 50.0479704 5.87619993 51.96500084 5.06640625 53.8828125 C4.61394531 54.95015625 4.16148437 56.0175 3.6953125 57.1171875 C2.76411072 59.4741966 2.02549905 61.66274085 1.50390625 64.1328125 C0.84390625 64.1328125 0.18390625 64.1328125 -0.49609375 64.1328125 C-0.62886719 64.74769531 -0.76164063 65.36257812 -0.8984375 65.99609375 C-1.07503906 66.80433594 -1.25164062 67.61257812 -1.43359375 68.4453125 C-1.60761719 69.24582031 -1.78164063 70.04632813 -1.9609375 70.87109375 C-2.49609375 73.1328125 -2.49609375 73.1328125 -3.49609375 76.1328125 C-4.15609375 76.1328125 -4.81609375 76.1328125 -5.49609375 76.1328125 C-5.57859375 77.0815625 -5.66109375 78.0303125 -5.74609375 79.0078125 C-6.33390742 83.20769854 -7.87396733 86.86238413 -9.5078125 90.75390625 C-10.65011631 93.50356246 -11.59970747 96.29425595 -12.49609375 99.1328125 C-13.15609375 99.1328125 -13.81609375 99.1328125 -14.49609375 99.1328125 C-14.62886719 99.83148438 -14.76164063 100.53015625 -14.8984375 101.25 C-15.07503906 102.16007812 -15.25164063 103.07015625 -15.43359375 104.0078125 C-15.60761719 104.91273437 -15.78164063 105.81765625 -15.9609375 106.75 C-16.49609375 109.1328125 -16.49609375 109.1328125 -17.49609375 111.1328125 C-18.15609375 111.1328125 -18.81609375 111.1328125 -19.49609375 111.1328125 C-20.15609375 112.4528125 -20.81609375 113.7728125 -21.49609375 115.1328125 C-25.41237038 115.27804184 -29.32795528 115.36686007 -33.24609375 115.4453125 C-34.35726562 115.48720703 -35.4684375 115.52910156 -36.61328125 115.57226562 C-44.8609397 115.69647735 -44.8609397 115.69647735 -48.203125 112.73046875 C-48.62980469 111.87324219 -49.05648437 111.01601562 -49.49609375 110.1328125 C-49.80546875 109.5140625 -50.11484375 108.8953125 -50.43359375 108.2578125 C-50.53422213 104.83644774 -48.91708235 102.19340334 -47.49609375 99.1328125 C-47.12300744 97.81005194 -46.7656296 96.48049173 -46.49609375 95.1328125 C-45.83609375 95.1328125 -45.17609375 95.1328125 -44.49609375 95.1328125 C-44.36332031 94.44574219 -44.23054687 93.75867188 -44.09375 93.05078125 C-43.91714844 92.14972656 -43.74054687 91.24867187 -43.55859375 90.3203125 C-43.38457031 89.42699219 -43.21054687 88.53367187 -43.03125 87.61328125 C-42.49609375 85.1328125 -42.49609375 85.1328125 -41.49609375 82.1328125 C-40.83609375 82.1328125 -40.17609375 82.1328125 -39.49609375 82.1328125 C-38.83609375 79.1628125 -38.17609375 76.1928125 -37.49609375 73.1328125 C-36.83609375 73.1328125 -36.17609375 73.1328125 -35.49609375 73.1328125 C-35.36332031 72.44574219 -35.23054687 71.75867188 -35.09375 71.05078125 C-34.91714844 70.14972656 -34.74054687 69.24867187 -34.55859375 68.3203125 C-34.38457031 67.42699219 -34.21054687 66.53367187 -34.03125 65.61328125 C-33.49609375 63.1328125 -33.49609375 63.1328125 -32.49609375 60.1328125 C-31.83609375 60.1328125 -31.17609375 60.1328125 -30.49609375 60.1328125 C-30.24859375 58.8540625 -30.00109375 57.5753125 -29.74609375 56.2578125 C-28.74795984 51.71953456 -27.19723927 47.57327165 -25.3984375 43.296875 C-24.69245056 41.60372884 -24.07619387 39.87311285 -23.49609375 38.1328125 C-22.83609375 38.1328125 -22.17609375 38.1328125 -21.49609375 38.1328125 C-21.35171875 37.0396875 -21.20734375 35.9465625 -21.05859375 34.8203125 C-20.49609375 31.1328125 -20.49609375 31.1328125 -19.49609375 28.1328125 C-18.83609375 28.1328125 -18.17609375 28.1328125 -17.49609375 28.1328125 C-17.36332031 27.44574219 -17.23054687 26.75867188 -17.09375 26.05078125 C-16.91714844 25.14972656 -16.74054687 24.24867187 -16.55859375 23.3203125 C-16.38457031 22.42699219 -16.21054687 21.53367187 -16.03125 20.61328125 C-15.49609375 18.1328125 -15.49609375 18.1328125 -14.49609375 15.1328125 C-13.83609375 15.1328125 -13.17609375 15.1328125 -12.49609375 15.1328125 C-11.83609375 11.8328125 -11.17609375 8.5328125 -10.49609375 5.1328125 C-9.83609375 5.1328125 -9.17609375 5.1328125 -8.49609375 5.1328125 C-8.18671875 4.4934375 -7.87734375 3.8540625 -7.55859375 3.1953125 C-5.60814878 -0.59084538 -4.16191406 0.00456029 0 0 Z " fill="#E06A5C" transform="translate(786.49609375,14.8671875)"/>
<path d="M0 0 C0.98097656 -0.02384766 1.96195313 -0.04769531 2.97265625 -0.07226562 C7.62191222 -0.06285418 10.37934859 0.09669139 14.3828125 2.59765625 C15.32967365 3.55455961 16.24186745 4.54648475 17.125 5.5625 C17.68034424 6.16271973 18.23568848 6.76293945 18.80786133 7.38134766 C22.99902946 12.02442007 26.86407954 16.92808898 30.6875 21.875 C31.58758789 23.03515625 31.58758789 23.03515625 32.50585938 24.21875 C37.39879037 30.55558033 42.14915264 36.99122831 46.87329102 43.4543457 C51.4189766 49.65485091 56.11396222 55.72506903 60.85961914 61.77319336 C65.78115685 68.06770113 70.53726687 74.47540613 75.24414062 80.93164062 C78.05198217 84.77767568 80.89877456 88.58317458 83.82836914 92.33764648 C84.44869522 93.13323471 85.0690213 93.92882294 85.70814514 94.7485199 C86.17570724 95.34713333 86.64326935 95.94574677 87.125 96.5625 C87.12047569 94.90998734 87.12047569 94.90998734 87.11585999 93.22409058 C87.09197426 82.83613072 87.10479965 72.44877666 87.15346622 62.06089592 C87.17730893 56.7204137 87.18826623 51.38055554 87.16967773 46.04003906 C87.15221027 40.8849277 87.16871846 35.73093698 87.20867729 30.57596207 C87.21796358 28.61043352 87.21505607 26.64480792 87.19969368 24.67931747 C87.18024248 21.92282087 87.20434479 19.16985608 87.23852539 16.41357422 C87.2227092 15.60293015 87.20689301 14.79228607 87.19059753 13.95707703 C87.27177169 10.54973393 87.43316583 8.40664229 89.63693047 5.71771622 C94.99080981 0.96980821 99.35298032 0.26939161 106.3984375 0.34375 C110.96699255 0.71028164 113.79628727 2.46108648 117.25271988 5.32623672 C119.588363 8.11594371 119.63038885 9.49054401 119.64398193 13.0927124 C119.65789474 14.21729355 119.67180756 15.34187469 119.68614197 16.50053406 C119.6811116 17.72980118 119.67608124 18.9590683 119.67089844 20.22558594 C119.68123611 21.52339493 119.69157379 22.82120392 119.70222473 24.15834045 C119.73009688 27.7138601 119.73348917 31.26903201 119.73250484 34.82464504 C119.73563295 38.54164363 119.76124895 42.25848536 119.78448486 45.97540283 C119.82505643 53.01242024 119.84538823 60.04934495 119.85845876 67.08646131 C119.87432494 75.09857669 119.91273889 83.11053425 119.95305204 91.12255812 C120.03546677 107.60249337 120.08954897 124.08239539 120.125 140.5625 C119.465 140.5625 118.805 140.5625 118.125 140.5625 C118.0425 141.26375 117.96 141.965 117.875 142.6875 C116.69780194 147.20009256 114.48425163 150.36316032 111 153.4375 C106.77283493 155.09160807 102.5731034 155.57920935 98.125 154.5625 C93.54562637 151.30605653 90.24717092 147.5174038 86.875 143.0625 C86.39957764 142.44576416 85.92415527 141.82902832 85.43432617 141.19360352 C84.45707029 139.92442105 83.48268576 138.65302234 82.51123047 137.37939453 C81.26542114 135.74654617 80.01024809 134.12085214 78.75390625 132.49609375 C76.20017335 129.19303619 73.66068684 125.87941673 71.125 122.5625 C70.54621094 121.80582031 69.96742187 121.04914063 69.37109375 120.26953125 C62.03403084 110.6725927 54.73018068 101.05275525 47.5 91.375 C42.07190999 84.1111378 36.55106336 76.92681971 30.96777344 69.78173828 C27.13233563 64.87024103 23.36315632 59.91581173 19.640625 54.91796875 C16.97217637 51.34551052 14.26459355 47.80314448 11.55834961 44.25927734 C9.48983904 41.54918746 7.42640577 38.83528527 5.36328125 36.12109375 C2.52535591 32.39002759 -0.33392418 28.67668227 -3.20703125 24.97265625 C-4.57578235 23.19030497 -5.94428136 21.40776006 -7.3125 19.625 C-7.95719238 18.80322266 -8.60188477 17.98144531 -9.26611328 17.13476562 C-15.16392904 9.40382325 -15.16392904 9.40382325 -14.875 4.5625 C-11.83376639 -1.09495011 -5.63969791 -0.06249991 0 0 Z " fill="#E0675A" transform="translate(30.875,14.4375)"/>
<path d="M0 0 C3.10642156 4.54447567 2.85889901 8.34290851 2.72265625 13.72265625 C2.73361328 14.66818359 2.74457031 15.61371094 2.75585938 16.58789062 C2.68387735 23.37819479 2.68387735 23.37819479 0.46484375 26.69140625 C-2.0801833 28.31332179 -4.38890845 29.22832136 -7.27734375 30.09765625 C-12.11852884 31.71783953 -14.54834595 33.33777171 -17.83984375 37.16015625 C-18.49984375 37.16015625 -19.15984375 37.16015625 -19.83984375 37.16015625 C-19.83984375 40.79015625 -19.83984375 44.42015625 -19.83984375 48.16015625 C-18.51984375 48.82015625 -17.19984375 49.48015625 -15.83984375 50.16015625 C-15.15664062 50.62550781 -14.4734375 51.09085938 -13.76953125 51.5703125 C-9.38722073 53.94844634 -4.73478666 55.1946411 0.03515625 56.59765625 C1.06294189 56.90550049 2.09072754 57.21334473 3.1496582 57.53051758 C10.02321498 59.57432765 16.92528614 61.45403739 23.86328125 63.265625 C37.71081177 67.02283411 51.34631759 72.22473603 61.16015625 83.16015625 C61.90265625 83.96453125 62.64515625 84.76890625 63.41015625 85.59765625 C65.39700366 88.50696852 65.83676502 90.68370055 66.16015625 94.16015625 C66.82015625 94.16015625 67.48015625 94.16015625 68.16015625 94.16015625 C69.05715542 97.23551835 69.28881644 99.98874144 69.29296875 103.1875 C69.29425781 104.14462891 69.29554687 105.10175781 69.296875 106.08789062 C69.29300781 107.08111328 69.28914063 108.07433594 69.28515625 109.09765625 C69.28902344 110.08701172 69.29289062 111.07636719 69.296875 112.09570312 C69.29558594 113.05412109 69.29429688 114.01253906 69.29296875 115 C69.29184082 115.87003662 69.29071289 116.74007324 69.28955078 117.63647461 C69.15656385 120.23022159 68.73153349 122.62981186 68.16015625 125.16015625 C67.50015625 125.16015625 66.84015625 125.16015625 66.16015625 125.16015625 C66.11890625 125.98515625 66.07765625 126.81015625 66.03515625 127.66015625 C64.87204682 132.31259398 62.46694313 135.70425696 59.16015625 139.16015625 C58.50015625 139.16015625 57.84015625 139.16015625 57.16015625 139.16015625 C56.9075 139.75957031 56.65484375 140.35898438 56.39453125 140.9765625 C51.89653118 148.93346769 40.28059825 151.69852468 32.16015625 154.16015625 C28.62872886 155.00148265 25.22589109 155.40395443 21.59765625 155.53515625 C20.66824219 155.58414063 19.73882813 155.633125 18.78125 155.68359375 C16.16015625 155.16015625 16.16015625 155.16015625 13.8515625 153.26171875 C11.45281513 148.86309194 11.57438931 145.09175553 11.66015625 140.16015625 C11.6446875 139.27070313 11.62921875 138.38125 11.61328125 137.46484375 C11.63780228 133.35757071 11.82274927 130.77190349 13.83203125 127.12890625 C16.56922374 124.81423341 18.39918392 124.27866951 21.91015625 123.66015625 C27.32826456 122.49297502 31.97787113 120.9184837 36.16015625 117.16015625 C37.14798719 114.19666344 37.2942615 112.18888995 37.28515625 109.09765625 C37.28773437 108.21980469 37.2903125 107.34195313 37.29296875 106.4375 C37.30849049 104.12817359 37.30849049 104.12817359 36.16015625 102.16015625 C33.86177383 100.95626869 31.59772686 99.87605478 29.22265625 98.84375 C28.50899902 98.53304062 27.7953418 98.22233124 27.06005859 97.90220642 C18.26412306 94.20130412 9.10776696 91.95437635 -0.13085938 89.65161133 C-14.45088406 86.048676 -30.24346738 81.05087641 -40.83984375 70.16015625 C-40.83984375 69.50015625 -40.83984375 68.84015625 -40.83984375 68.16015625 C-41.82984375 67.83015625 -42.81984375 67.50015625 -43.83984375 67.16015625 C-44.52734375 65.09765625 -44.52734375 65.09765625 -44.83984375 63.16015625 C-45.49984375 63.16015625 -46.15984375 63.16015625 -46.83984375 63.16015625 C-48.96222256 58.08490257 -50.19818396 53.68924 -50.65234375 48.2109375 C-50.81634392 45.98755026 -50.81634392 45.98755026 -51.46484375 43.16015625 C-51.58859375 42.50015625 -51.71234375 41.84015625 -51.83984375 41.16015625 C-51.34484375 40.66515625 -51.34484375 40.66515625 -50.83984375 40.16015625 C-50.49018493 38.2708233 -50.18519545 36.37313913 -49.90234375 34.47265625 C-49.22357449 30.19079602 -48.41807225 26.21845811 -46.83984375 22.16015625 C-46.17984375 22.16015625 -45.51984375 22.16015625 -44.83984375 22.16015625 C-44.17984375 20.18015625 -43.51984375 18.20015625 -42.83984375 16.16015625 C-42.17984375 16.16015625 -41.51984375 16.16015625 -40.83984375 16.16015625 C-40.57171875 15.52078125 -40.30359375 14.88140625 -40.02734375 14.22265625 C-38.83984375 12.16015625 -38.83984375 12.16015625 -35.83984375 11.16015625 C-35.83984375 10.50015625 -35.83984375 9.84015625 -35.83984375 9.16015625 C-33.8900184 7.75446821 -31.88033797 6.43065265 -29.83984375 5.16015625 C-29.11023437 4.66773438 -28.380625 4.1753125 -27.62890625 3.66796875 C-24.18340895 1.80527693 -20.68309085 0.8748401 -16.90234375 -0.02734375 C-16.21205078 -0.20458984 -15.52175781 -0.38183594 -14.81054688 -0.56445312 C-4.70177873 -3.04613175 -4.70177873 -3.04613175 0 0 Z " fill="#E06C5E" transform="translate(1084.83984375,18.83984375)"/>
<path d="M0 0 C3.57236674 1.9270028 5.69560702 4.08682105 7 8 C7.61449131 12.60868481 7.78836139 16.63965326 4.9375 20.5 C1.45211981 23.46628101 -0.5048066 23.67891476 -5 24 C-9.63906467 25.32736659 -12.45848176 28.06377507 -15.73828125 31.4453125 C-16.52672676 32.24012527 -16.52672676 32.24012527 -17.33110046 33.05099487 C-18.9987766 34.73538611 -20.65568349 36.42993261 -22.3125 38.125 C-23.44526708 39.27282316 -24.57872355 40.41996641 -25.71289062 41.56640625 C-28.4833047 44.36979437 -31.24411133 47.18233431 -34 50 C-33.34 51.11375 -32.68 52.2275 -32 53.375 C-30 56.75 -30 56.75 -30 59 C-24.53662704 58.98056824 -19.07486228 58.92881706 -13.61206055 58.84741211 C-11.75472787 58.82425012 -9.89726418 58.8098406 -8.03979492 58.80444336 C-5.365545 58.79514038 -2.69335032 58.75412303 -0.01953125 58.70703125 C1.2213752 58.71293022 1.2213752 58.71293022 2.48735046 58.71894836 C6.85792874 58.60894297 8.4772236 58.44147397 11.9387207 55.51831055 C12.61894287 54.68726807 13.29916504 53.85622559 14 53 C17.48697902 51.25651049 21.19590063 51.41917275 25 52 C28.57623788 53.9137306 30.69762236 56.09286708 32 60 C32.34531267 65.35234642 32.47574585 68.65531768 29 73 C27.10523066 75.11339657 25.7566758 75.8815889 22.953125 76.3203125 C17.48005642 76.59580253 14.29182418 75.64805056 10 72 C9.67 71.34 9.34 70.68 9 70 C-10.305 69.505 -10.305 69.505 -30 69 C-30.66 70.98 -31.32 72.96 -32 75 C-32.66 75.99 -33.32 76.98 -34 78 C-30.52249986 81.55169189 -27.0352334 85.09338919 -23.53857422 88.6262207 C-22.35061902 89.82925642 -21.16537105 91.03497173 -19.98291016 92.2434082 C-18.28212936 93.98060371 -16.57182465 95.70790934 -14.859375 97.43359375 C-14.07007599 98.24611855 -14.07007599 98.24611855 -13.26483154 99.07505798 C-9.22993923 103.11177807 -7.09552273 103.88569876 -1.5625 104.1875 C2.15736312 105.03588984 3.85800715 106.0214867 6.12109375 109.12109375 C7.79234731 112.69386247 7.65109876 116.17125623 7 120 C5.40784408 123.66195861 3.59590196 126.20204902 0 128 C-4.77002542 128.74645436 -8.10753355 128.45434656 -12.4375 126.25 C-14.90358238 124.08465937 -15.87443526 122.99568644 -17 120 C-16.85364871 118.51614151 -16.6507495 117.03728175 -16.40625 115.56640625 C-16.29959017 109.51457213 -19.52420399 106.10066784 -23.47045898 101.94107056 C-24.57164831 100.82448645 -25.68251087 99.71736974 -26.80224609 98.61938477 C-28.48728943 96.95009176 -30.09477682 95.22565801 -31.70703125 93.48632812 C-37.61510818 87.4097255 -42.17025529 84.06092888 -50.84375 83.75390625 C-53.25003568 83.74543125 -55.59633719 83.84036358 -58 84 C-58.27295898 84.57999756 -58.54591797 85.15999512 -58.82714844 85.75756836 C-59.98693849 87.97502707 -61.27259253 89.87329231 -62.765625 91.87890625 C-63.31782715 92.6268042 -63.8700293 93.37470215 -64.43896484 94.14526367 C-65.67147079 95.79032183 -66.91169956 97.42961588 -68.15869141 99.0637207 C-71.45496275 103.41396063 -74.49343057 107.73001316 -77.1953125 112.4765625 C-84.69609937 125.08782664 -84.69609937 125.08782664 -90.95703125 126.81640625 C-98.03053293 127.6211759 -104.98164338 127.06823643 -112 126 C-110.25094834 122.37841711 -108.10373354 119.18782726 -105.75 115.9375 C-105.09898315 115.03209473 -105.09898315 115.03209473 -104.43481445 114.10839844 C-100.14097772 108.15559635 -95.77795379 102.25351474 -91.41430664 96.35180664 C-86.55827954 89.77837986 -81.76453291 83.1615822 -76.9987793 76.52246094 C-76.48742432 75.8112207 -75.97606934 75.09998047 -75.44921875 74.3671875 C-74.99893311 73.73925293 -74.54864746 73.11131836 -74.0847168 72.46435547 C-73 71 -73 71 -72 70 C-70.73368348 65.14875926 -70.62134108 60.47220251 -73.11914062 55.99316406 C-76.23328326 51.45827373 -79.77859228 47.26552777 -83.31201172 43.0546875 C-85.6734997 40.18018897 -87.81361832 37.1769305 -89.9375 34.125 C-94.03052673 28.32018806 -98.22019863 22.59009022 -102.4375 16.875 C-103.34326782 15.64740967 -103.34326782 15.64740967 -104.26733398 14.39501953 C-107.42912768 10.09637981 -107.42912768 10.09637981 -110.68774414 5.87158203 C-112 4 -112 4 -112 2 C-92.40268111 -0.98283077 -92.40268111 -0.98283077 -85.74707031 3.52636719 C-81.59332406 7.83419367 -78.71287118 12.98818199 -75.74511719 18.14941406 C-72.61799834 23.25744982 -68.83129074 27.86729462 -65.125 32.5625 C-63.74636019 34.32978225 -62.37342674 36.10153966 -61.0078125 37.87890625 C-60.13600342 39.00147827 -60.13600342 39.00147827 -59.24658203 40.14672852 C-58 42 -58 42 -58 44 C-50.01093975 44.53058397 -43.03951771 44.62149969 -36.62719727 39.32290649 C-34.36467702 37.22504597 -32.20927884 35.05550587 -30.11181641 32.79272461 C-28.48808649 31.04971129 -26.80616373 29.38445677 -25.10546875 27.71679688 C-19.45793921 22.17078178 -19.45793921 22.17078178 -16.35058594 15.07568359 C-16.32560248 12.44858393 -16.32560248 12.44858393 -16.76660156 10.07006836 C-17 8 -17 8 -15.25 4.5 C-10.95046286 -0.27726349 -6.2153501 -1.07532009 0 0 Z " fill="#FFFFFF" transform="translate(448,28)"/>
<path d="M0 0 C6.28181862 4.29002247 6.28181862 4.29002247 7.0742445 8.41186333 C7.07964906 9.43279139 7.08505362 10.45371944 7.09062195 11.50558472 C7.10623672 12.68039398 7.1218515 13.85520325 7.13793945 15.06561279 C7.13286377 16.99355682 7.13286377 16.99355682 7.12768555 18.96044922 C7.13801962 20.33061004 7.15000884 21.70075924 7.16352844 23.07089233 C7.19458195 26.79003909 7.19985253 30.50879845 7.19859672 34.22805929 C7.19942721 37.33439139 7.21167023 40.44063944 7.22354633 43.54694569 C7.2509247 50.87689108 7.25624797 58.20663538 7.2487793 65.53662109 C7.24153918 73.09413099 7.27494668 80.65070784 7.32783669 88.20801532 C7.37162781 94.69990772 7.38833247 101.1914988 7.3838008 107.68353665 C7.38147932 111.55947362 7.3897824 115.43465688 7.42487144 119.31045151 C7.45685066 122.95691696 7.45500299 126.60183908 7.42742729 130.24832535 C7.4208566 132.22005435 7.44881883 134.19180423 7.47787476 136.16333008 C7.36757299 144.61643346 7.36757299 144.61643346 5.05225563 147.87646866 C-0.14101828 152.5016064 -4.93013856 153.04031516 -11.7109375 152.96875 C-16.27506254 152.60257378 -19.10154305 150.84886932 -22.56464863 148.00034904 C-24.93744733 145.14928175 -24.94615843 143.67109891 -24.96562195 139.99441528 C-24.98904411 138.23220139 -24.98904411 138.23220139 -25.01293945 136.43438721 C-25.00786377 134.50644318 -25.00786377 134.50644318 -25.00268555 132.53955078 C-25.01301962 131.16938996 -25.02500884 129.79924076 -25.03852844 128.42910767 C-25.06958195 124.70996091 -25.07485253 120.99120155 -25.07359672 117.27194071 C-25.07442721 114.16560861 -25.08667023 111.05936056 -25.09854633 107.95305431 C-25.1259247 100.62310892 -25.13124797 93.29336462 -25.1237793 85.96337891 C-25.11653918 78.40586901 -25.14994668 70.84929216 -25.20283669 63.29198468 C-25.24662781 56.80009228 -25.26333247 50.3085012 -25.2588008 43.81646335 C-25.25647932 39.94052638 -25.2647824 36.06534312 -25.29987144 32.18954849 C-25.33185066 28.54308304 -25.33000299 24.89816092 -25.30242729 21.25167465 C-25.2958566 19.27994565 -25.32381883 17.30819577 -25.35287476 15.33666992 C-25.24257299 6.88356654 -25.24257299 6.88356654 -22.92725563 3.62353134 C-16.4803126 -2.11812605 -8.01708774 -2.91530463 0 0 Z " fill="#E0675A" transform="translate(618.4375,19.25)"/>
<path d="M0 0 C6.28181862 4.29002247 6.28181862 4.29002247 7.0742445 8.41186333 C7.07964906 9.43279139 7.08505362 10.45371944 7.09062195 11.50558472 C7.10623672 12.68039398 7.1218515 13.85520325 7.13793945 15.06561279 C7.13286377 16.99355682 7.13286377 16.99355682 7.12768555 18.96044922 C7.13801962 20.33061004 7.15000884 21.70075924 7.16352844 23.07089233 C7.19458195 26.79003909 7.19985253 30.50879845 7.19859672 34.22805929 C7.19942721 37.33439139 7.21167023 40.44063944 7.22354633 43.54694569 C7.2509247 50.87689108 7.25624797 58.20663538 7.2487793 65.53662109 C7.24153918 73.09413099 7.27494668 80.65070784 7.32783669 88.20801532 C7.37162781 94.69990772 7.38833247 101.1914988 7.3838008 107.68353665 C7.38147932 111.55947362 7.3897824 115.43465688 7.42487144 119.31045151 C7.45685066 122.95691696 7.45500299 126.60183908 7.42742729 130.24832535 C7.4208566 132.22005435 7.44881883 134.19180423 7.47787476 136.16333008 C7.36757299 144.61643346 7.36757299 144.61643346 5.05225563 147.87646866 C-0.14101828 152.5016064 -4.93013856 153.04031516 -11.7109375 152.96875 C-16.27506254 152.60257378 -19.10154305 150.84886932 -22.56464863 148.00034904 C-24.93744733 145.14928175 -24.94615843 143.67109891 -24.96562195 139.99441528 C-24.98904411 138.23220139 -24.98904411 138.23220139 -25.01293945 136.43438721 C-25.00786377 134.50644318 -25.00786377 134.50644318 -25.00268555 132.53955078 C-25.01301962 131.16938996 -25.02500884 129.79924076 -25.03852844 128.42910767 C-25.06958195 124.70996091 -25.07485253 120.99120155 -25.07359672 117.27194071 C-25.07442721 114.16560861 -25.08667023 111.05936056 -25.09854633 107.95305431 C-25.1259247 100.62310892 -25.13124797 93.29336462 -25.1237793 85.96337891 C-25.11653918 78.40586901 -25.14994668 70.84929216 -25.20283669 63.29198468 C-25.24662781 56.80009228 -25.26333247 50.3085012 -25.2588008 43.81646335 C-25.25647932 39.94052638 -25.2647824 36.06534312 -25.29987144 32.18954849 C-25.33185066 28.54308304 -25.33000299 24.89816092 -25.30242729 21.25167465 C-25.2958566 19.27994565 -25.32381883 17.30819577 -25.35287476 15.33666992 C-25.24257299 6.88356654 -25.24257299 6.88356654 -22.92725563 3.62353134 C-16.4803126 -2.11812605 -8.01708774 -2.91530463 0 0 Z " fill="#E0675A" transform="translate(209.4375,16.25)"/>
<path d="M0 0 C1.01513672 -0.020625 2.03027344 -0.04125 3.07617188 -0.0625 C4.53700195 -0.07023437 4.53700195 -0.07023437 6.02734375 -0.078125 C6.9205835 -0.0874707 7.81382324 -0.09681641 8.73413086 -0.10644531 C11.0625 0.25 11.0625 0.25 12.87719727 1.58300781 C14.0625 3.25 14.0625 3.25 14.0625 6.25 C14.7225 6.25 15.3825 6.25 16.0625 6.25 C16.26166016 7.15492187 16.26166016 7.15492187 16.46484375 8.078125 C16.64144531 8.87734375 16.81804687 9.6765625 17 10.5 C17.17402344 11.28890625 17.34804687 12.0778125 17.52734375 12.890625 C17.70394531 13.66921875 17.88054687 14.4478125 18.0625 15.25 C18.21912109 16.32507813 18.21912109 16.32507813 18.37890625 17.421875 C18.91114938 19.41450315 18.91114938 19.41450315 20.890625 20.37890625 C21.96570312 20.81009766 21.96570312 20.81009766 23.0625 21.25 C23.98289062 21.72759766 23.98289062 21.72759766 24.921875 22.21484375 C28.37899896 23.99340545 31.74542366 25.52154551 35.4375 26.75 C39.0625 28.25 39.0625 28.25 40.26586914 30.04321289 C41.746793 34.14559438 41.47351062 38.36973129 41.5 42.6875 C41.53287109 43.62916016 41.56574219 44.57082031 41.59960938 45.54101562 C41.63580468 50.20362925 41.58374075 52.52440407 38.80078125 56.3984375 C35.06018987 58.92773894 33.50805776 58.7137568 29.19921875 58.01171875 C13.35441207 54.16397616 0.94605863 47.77331225 -8.9375 34.25 C-10.51802188 31.15767459 -10.9375 29.71227132 -10.9375 26.25 C-11.5975 26.25 -12.2575 26.25 -12.9375 26.25 C-13.14246094 25.25097656 -13.34742188 24.25195312 -13.55859375 23.22265625 C-13.82800781 21.93230469 -14.09742188 20.64195312 -14.375 19.3125 C-14.77525391 17.38083984 -14.77525391 17.38083984 -15.18359375 15.41015625 C-15.60931616 12.40361121 -15.60931616 12.40361121 -16.9375 11.25 C-17.42543461 7.73687079 -17.09393813 6.47944258 -15.0625 3.5 C-10.79151348 -1.02222102 -5.88317988 0.02976941 0 0 Z " fill="#E16D60" transform="translate(1045.9375,115.75)"/>
<path d="M0 0 C2.96174174 1.73603631 5.45193769 3.71219109 8 6 C8.57363281 6.44601563 9.14726563 6.89203125 9.73828125 7.3515625 C12.70060977 9.65638135 14.51385776 11.57044098 16 15 C16.46921875 15.46277344 16.9384375 15.92554687 17.421875 16.40234375 C23.46404656 22.51929466 24.90194693 31.909815 25.03515625 40.18359375 C24.79349774 42.92435484 24.09436379 44.85450052 22.6015625 47.15625 C18.49673506 50.06537695 14.40417072 49.57985081 9.5 49.5 C8.07494141 49.52320312 8.07494141 49.52320312 6.62109375 49.546875 C-0.24206289 49.50826371 -0.24206289 49.50826371 -3.65625 47.21875 C-5 45 -5 45 -5 41 C-5.66 41 -6.32 41 -7 41 C-7.65104167 39.046875 -8.30208333 37.09375 -8.953125 35.140625 C-10.76405984 31.43766868 -12.91983077 29.44568587 -16.7265625 27.875 C-18.66362802 27.2902255 -20.60113122 26.70689894 -22.5390625 26.125 C-25 25 -25 25 -26.3359375 22.875 C-26.55507812 22.25625 -26.77421875 21.6375 -27 21 C-27.66 21 -28.32 21 -29 21 C-29.11660824 17.60445765 -29.18738372 14.20943321 -29.25 10.8125 C-29.28351563 9.85279297 -29.31703125 8.89308594 -29.3515625 7.90429688 C-29.45034943 0.76694123 -29.45034943 0.76694123 -27.171875 -3.11328125 C-19.92044074 -9.41263871 -7.83633963 -3.17023284 0 0 Z " fill="#E16E61" transform="translate(1126,23)"/>
<path d="M0 0 C0.97893219 -0.01094193 1.95786438 -0.02188385 2.96646118 -0.03315735 C5.03585549 -0.04901363 7.10535488 -0.05422147 9.17480469 -0.04956055 C12.33446469 -0.05077468 15.48948814 -0.11052105 18.6484375 -0.17382812 C20.66144702 -0.18197087 22.67447419 -0.18664225 24.6875 -0.1875 C26.09870621 -0.22287117 26.09870621 -0.22287117 27.53842163 -0.25895691 C33.94170728 -0.16962783 33.94170728 -0.16962783 36.91241455 2.14511108 C41.61706438 7.45305321 42.26879291 11.94788729 42.1953125 18.91015625 C41.83498688 23.40135774 40.00836871 26.16137517 37.49365234 29.75708008 C33.57928187 32.68013908 29.71970833 32.26680744 24.953125 32.2734375 C23.97419281 32.28437943 22.99526062 32.29532135 21.98666382 32.30659485 C19.91726951 32.32245113 17.84777012 32.32765897 15.77832031 32.32299805 C12.61866031 32.32421218 9.46363686 32.38395855 6.3046875 32.44726562 C4.29167798 32.45540837 2.27865081 32.46007975 0.265625 32.4609375 C-0.67517914 32.48451828 -1.61598328 32.50809906 -2.58529663 32.53239441 C-8.98858228 32.44306533 -8.98858228 32.44306533 -11.95928955 30.12832642 C-16.66393938 24.82038429 -17.31566791 20.32555021 -17.2421875 13.36328125 C-16.88186188 8.87207976 -15.05524371 6.11206233 -12.54052734 2.51635742 C-8.62615687 -0.40670158 -4.76658333 0.00663006 0 0 Z " fill="#E0675A" transform="translate(657.0234375,140.36328125)"/>
<path d="M0 0 C0.97893219 -0.01094193 1.95786438 -0.02188385 2.96646118 -0.03315735 C5.03585549 -0.04901363 7.10535488 -0.05422147 9.17480469 -0.04956055 C12.33446469 -0.05077468 15.48948814 -0.11052105 18.6484375 -0.17382812 C20.66144702 -0.18197087 22.67447419 -0.18664225 24.6875 -0.1875 C26.09870621 -0.22287117 26.09870621 -0.22287117 27.53842163 -0.25895691 C33.94170728 -0.16962783 33.94170728 -0.16962783 36.91241455 2.14511108 C41.61706438 7.45305321 42.26879291 11.94788729 42.1953125 18.91015625 C41.83498688 23.40135774 40.00836871 26.16137517 37.49365234 29.75708008 C33.57928187 32.68013908 29.71970833 32.26680744 24.953125 32.2734375 C23.97419281 32.28437943 22.99526062 32.29532135 21.98666382 32.30659485 C19.91726951 32.32245113 17.84777012 32.32765897 15.77832031 32.32299805 C12.61866031 32.32421218 9.46363686 32.38395855 6.3046875 32.44726562 C4.29167798 32.45540837 2.27865081 32.46007975 0.265625 32.4609375 C-0.67517914 32.48451828 -1.61598328 32.50809906 -2.58529663 32.53239441 C-8.98858228 32.44306533 -8.98858228 32.44306533 -11.95928955 30.12832642 C-16.66393938 24.82038429 -17.31566791 20.32555021 -17.2421875 13.36328125 C-16.88186188 8.87207976 -15.05524371 6.11206233 -12.54052734 2.51635742 C-8.62615687 -0.40670158 -4.76658333 0.00663006 0 0 Z " fill="#E0675A" transform="translate(248.0234375,137.36328125)"/>
<path d="M0 0 C6.28159965 4.28987293 6.28159965 4.28987293 6.95809937 7.80633545 C7.1436713 10.46912737 7.19550586 13.10411072 7.19921875 15.7734375 C7.21016068 16.75236969 7.2211026 17.73130188 7.2323761 18.73989868 C7.24823238 20.80929299 7.25344022 22.87879238 7.2487793 24.94824219 C7.24999343 28.10790219 7.3097398 31.26292564 7.37304688 34.421875 C7.38118962 36.43488452 7.385861 38.44791169 7.38671875 40.4609375 C7.41029953 41.40174164 7.43388031 42.34254578 7.45817566 43.31185913 C7.36884658 49.71514478 7.36884658 49.71514478 5.05410767 52.68585205 C-0.25383446 57.39050188 -4.74866854 58.04223041 -11.7109375 57.96875 C-16.20213899 57.60842438 -18.96215642 55.78180621 -22.55786133 53.26708984 C-25.48092033 49.35271937 -25.06758869 45.49314583 -25.07421875 40.7265625 C-25.08516068 39.74763031 -25.0961026 38.76869812 -25.1073761 37.76010132 C-25.12323238 35.69070701 -25.12844022 33.62120762 -25.1237793 31.55175781 C-25.12499343 28.39209781 -25.1847398 25.23707436 -25.24804688 22.078125 C-25.25618962 20.06511548 -25.260861 18.05208831 -25.26171875 16.0390625 C-25.28529953 15.09825836 -25.30888031 14.15745422 -25.33317566 13.18814087 C-25.24384658 6.78485522 -25.24384658 6.78485522 -22.92910767 3.81414795 C-16.36683362 -2.00226842 -8.23089411 -2.9930524 0 0 Z " fill="#E0675A" transform="translate(40.4375,111.25)"/>
<path d="M0 0 C0.66 0 1.32 0 2 0 C2.99 4.95 2.99 4.95 4 10 C4.66 10 5.32 10 6 10 C6.50559908 11.43554025 7.0042749 12.8735202 7.5 14.3125 C7.7784375 15.11300781 8.056875 15.91351563 8.34375 16.73828125 C9 19 9 19 9 22 C9.66 22 10.32 22 11 22 C11.99 26.95 11.99 26.95 13 32 C13.66 32 14.32 32 15 32 C15.25394531 32.78503906 15.50789062 33.57007813 15.76953125 34.37890625 C18.01680847 41.31247823 18.01680847 41.31247823 20.75 48.0625 C22 51 22 51 22 54 C22.66 54 23.32 54 24 54 C24.25394531 54.85722656 24.50789062 55.71445313 24.76953125 56.59765625 C26.81307003 63.38649107 28.9804576 69.77870084 32.0390625 76.171875 C34.2289423 80.86672521 35.55986802 84.82844926 36 90 C36.66 90 37.32 90 38 90 C45 107.02030457 45 107.02030457 45 112 C45.66 112 46.32 112 47 112 C47.50512244 113.60256108 48.00391627 115.20711792 48.5 116.8125 C48.91765625 118.15248047 48.91765625 118.15248047 49.34375 119.51953125 C50 122 50 122 50 125 C50.66 125 51.32 125 52 125 C54.42422814 133.98185246 54.42422814 133.98185246 52.75 138 C49.27567588 141.97065613 49.27567588 141.97065613 46.63552856 142.25168228 C45.63705902 142.25243633 44.63858948 142.25319038 43.60986328 142.25396729 C42.46567932 142.25960693 41.32149536 142.26524658 40.14263916 142.27105713 C38.88127136 142.26700867 37.61990356 142.26296021 36.3203125 142.25878906 C34.98337615 142.26149803 33.64644129 142.26505843 32.30950928 142.26940918 C28.67320871 142.27854675 25.0370213 142.27498334 21.40071869 142.26865101 C17.60063871 142.26359807 13.80056862 142.26828049 10.00048828 142.27142334 C3.61814631 142.27506505 -2.76414942 142.27025853 -9.14648438 142.26074219 C-16.53214409 142.24985723 -23.91769341 142.25338266 -31.30335045 142.264395 C-37.63713719 142.27346205 -43.97089064 142.27475601 -50.30468178 142.26951766 C-54.09081457 142.26639474 -57.87689542 142.26599739 -61.6630249 142.27259064 C-65.22199438 142.27835505 -68.78082108 142.27438396 -72.33977509 142.26280212 C-74.2740611 142.25888278 -76.20835914 142.2648489 -78.14263916 142.27105713 C-79.28682312 142.26541748 -80.43100708 142.25977783 -81.60986328 142.25396729 C-82.60833282 142.25321323 -83.60680237 142.25245918 -84.63552856 142.25168228 C-87 142 -87 142 -89 140 C-87.94505608 139.99780016 -87.94505608 139.99780016 -86.86880016 139.99555588 C-69.76830347 139.95852926 -52.668024 139.89956994 -35.56769085 139.81609726 C-27.29813492 139.77626146 -19.02867478 139.74389214 -10.7590332 139.72900391 C-3.55250598 139.71601082 3.65381089 139.68910652 10.86021966 139.64538693 C14.67719813 139.62271897 18.49391664 139.60709248 22.3109684 139.60811615 C25.90211358 139.60885965 29.49268295 139.59103537 33.0836792 139.55883217 C35.03325913 139.5462218 36.98293546 139.55342135 38.93254089 139.56114197 C40.08940399 139.54722916 41.24626709 139.53331635 42.43818665 139.51898193 C43.94946624 139.51345118 43.94946624 139.51345118 45.49127674 139.50780869 C48.11738848 139.2115157 48.11738848 139.2115157 49.85933208 137.19412613 C51.57371982 133.89642407 50.84877727 131.52569019 50 128 C49.34 127.34 48.68 126.68 48 126 C47.5078125 124.1171875 47.5078125 124.1171875 47.125 121.875 C46.14519753 117.08315355 44.28206144 113.28725513 42 109 C39.34643395 103.61547223 37.29522114 98.06364817 35.33984375 92.39453125 C32.24722633 83.53819387 28.87218757 74.80528494 25.41333008 66.08642578 C24.43057763 63.60753907 23.4542673 61.12618082 22.47851562 58.64453125 C19.57005887 51.27446241 16.59258906 43.98369412 13.2487793 36.79833984 C10.79993946 31.31083208 8.6595653 25.69497049 6.49584961 20.09033203 C5.67712635 17.97317451 4.84952258 15.85962295 4.02148438 13.74609375 C3.49686014 12.39343681 2.97275191 11.0405796 2.44921875 9.6875 C1.97830811 8.47449219 1.50739746 7.26148438 1.0222168 6.01171875 C0 3 0 3 0 0 Z " fill="#F8E0DD" transform="translate(813,29)"/>
<path d="M0 0 C0.66 0 1.32 0 2 0 C3.4606285 2.64738916 4 3.89448334 4 7 C4.66 7 5.32 7 6 7 C7.97647435 13.60662144 8.33469301 19.68710514 8.3125 26.5625 C8.32861328 27.56474609 8.34472656 28.56699219 8.36132812 29.59960938 C8.36526013 35.57233252 7.75753443 39.69810711 5 45 C4.54625 46.19625 4.0925 47.3925 3.625 48.625 C-0.65562693 57.51553285 -10.5603576 64.01501521 -19.68798828 67.29101562 C-31.09265287 71.09736196 -42.19899518 71.16214615 -54.0859375 71.16796875 C-55.63530507 71.17118704 -57.18467235 71.17455153 -58.73403931 71.17805481 C-61.96316229 71.18401011 -65.19225864 71.18589808 -68.42138672 71.18530273 C-72.56076609 71.18520049 -76.69997632 71.19893222 -80.83931541 71.21607494 C-84.03057648 71.22717496 -87.2217961 71.22922268 -90.41307449 71.22869301 C-91.94011654 71.22987308 -93.46715965 71.23429636 -94.99418259 71.24202538 C-97.12173315 71.25179918 -99.24890853 71.24895947 -101.37646484 71.24291992 C-102.58619965 71.24434494 -103.79593445 71.24576996 -105.04232788 71.24723816 C-108 71 -108 71 -111 69 C-109.66814667 68.98786972 -109.66814667 68.98786972 -108.30938721 68.97549438 C-99.89537214 68.89718727 -91.48150929 68.80979112 -83.0676918 68.71247292 C-78.7432392 68.66276711 -74.41880803 68.61643734 -70.09423828 68.578125 C-65.91197746 68.54094414 -61.72990816 68.49450081 -57.54781342 68.44193649 C-55.96126453 68.42356508 -54.37467487 68.40839528 -52.78806305 68.39665604 C-34.85525243 68.25936336 -17.76950744 66.7373434 -4 54 C-1.47583053 50.85378469 0.33626021 47.66701832 2 44 C2.33773437 43.2884375 2.67546875 42.576875 3.0234375 41.84375 C7.04229307 31.37260338 6.86837444 17.15060806 2.5 6.875 C1.6704116 5.24808497 0.83819158 3.62249941 0 2 C0 1.34 0 0.68 0 0 Z " fill="#F9E3E0" transform="translate(1003,101)"/>
<path d="M0 0 C5.77644183 3.13578271 10.29838504 7.57977809 14 13 C14.75 16.3125 14.75 16.3125 15 19 C15.66 19 16.32 19 17 19 C17.89699917 22.0753621 18.12866019 24.82858519 18.1328125 28.02734375 C18.13474609 29.46303711 18.13474609 29.46303711 18.13671875 30.92773438 C18.13285156 31.92095703 18.12898438 32.91417969 18.125 33.9375 C18.13080078 35.4215332 18.13080078 35.4215332 18.13671875 36.93554688 C18.13542969 37.89396484 18.13414063 38.85238281 18.1328125 39.83984375 C18.13168457 40.70988037 18.13055664 41.57991699 18.12939453 42.47631836 C17.9964076 45.07006534 17.57137724 47.46965561 17 50 C16.34 50 15.68 50 15 50 C14.95875 50.825 14.9175 51.65 14.875 52.5 C13.71189057 57.15243773 11.30678688 60.54410071 8 64 C7.34 64 6.68 64 6 64 C5.74734375 64.59941406 5.4946875 65.19882813 5.234375 65.81640625 C0.73637493 73.77331144 -10.879558 76.53836843 -19 79 C-22.59353871 79.86966919 -25.99142395 80.18949125 -29.6875 80.25 C-30.64011719 80.27578125 -31.59273437 80.3015625 -32.57421875 80.328125 C-33.37472656 80.21984375 -34.17523437 80.1115625 -35 80 C-35.66 79.01 -36.32 78.02 -37 77 C-36.27296875 77.03480469 -35.5459375 77.06960937 -34.796875 77.10546875 C-20.9844189 77.47734257 -8.6604257 73.99473418 2 65 C2.66 65 3.32 65 4 65 C4.268125 64.4328125 4.53625 63.865625 4.8125 63.28125 C6.47744027 60.08281212 8.52717775 57.19032049 10.5625 54.21875 C13.21966622 50.1174717 14.25409456 47.41059207 14.265625 42.45703125 C14.26820312 41.38259766 14.27078125 40.30816406 14.2734375 39.20117188 C14.26183594 37.5237793 14.26183594 37.5237793 14.25 35.8125 C14.25773437 34.71357422 14.26546875 33.61464844 14.2734375 32.48242188 C14.26425167 19.36532502 14.26425167 19.36532502 7.5625 8.5625 C6.78003906 7.73878906 5.99757813 6.91507812 5.19140625 6.06640625 C2.98048816 3.86619583 2.98048816 3.86619583 0 2 C0 1.34 0 0.68 0 0 Z " fill="#F7DAD7" transform="translate(1136,94)"/>
<path d="M0 0 C0.66 0 1.32 0 2 0 C2.66 3.3 3.32 6.6 4 10 C4.66 10 5.32 10 6 10 C6.50559908 11.43554025 7.0042749 12.8735202 7.5 14.3125 C7.7784375 15.11300781 8.056875 15.91351563 8.34375 16.73828125 C9 19 9 19 9 22 C9.66 22 10.32 22 11 22 C11.66 25.3 12.32 28.6 13 32 C13.66 32 14.32 32 15 32 C15.25394531 32.78503906 15.50789062 33.57007813 15.76953125 34.37890625 C18.01680847 41.31247823 18.01680847 41.31247823 20.75 48.0625 C22 51 22 51 22 54 C22.66 54 23.32 54 24 54 C24.38091797 55.28583984 24.38091797 55.28583984 24.76953125 56.59765625 C26.81307003 63.38649107 28.9804576 69.77870084 32.0390625 76.171875 C34.2289423 80.86672521 35.55986802 84.82844926 36 90 C36.66 90 37.32 90 38 90 C45 107.02030457 45 107.02030457 45 112 C45.66 112 46.32 112 47 112 C47.50512244 113.60256108 48.00391627 115.20711792 48.5 116.8125 C48.7784375 117.70582031 49.056875 118.59914063 49.34375 119.51953125 C50 122 50 122 50 125 C50.66 125 51.32 125 52 125 C52.495 127.475 52.495 127.475 53 130 C51 130 51 130 49.5 128.5625 C48.0544688 126.09305087 47.60114905 124.50998054 47.0625 121.75 C46.12225078 116.99435933 44.26176904 113.24913228 42 109 C39.34643395 103.61547223 37.29522114 98.06364817 35.33984375 92.39453125 C32.24722633 83.53819387 28.87218757 74.80528494 25.41333008 66.08642578 C24.43057763 63.60753907 23.4542673 61.12618082 22.47851562 58.64453125 C19.57005887 51.27446241 16.59258906 43.98369412 13.2487793 36.79833984 C10.79993946 31.31083208 8.6595653 25.69497049 6.49584961 20.09033203 C5.67712635 17.97317451 4.84952258 15.85962295 4.02148438 13.74609375 C3.49686014 12.39343681 2.97275191 11.0405796 2.44921875 9.6875 C1.74285278 7.86798828 1.74285278 7.86798828 1.0222168 6.01171875 C0 3 0 3 0 0 Z " fill="#FCF4F3" transform="translate(813,29)"/>
<path d="M0 0 C1.32 0.99 2.64 1.98 4 3 C3.34 3.33 2.68 3.66 2 4 C1.07501997 5.90470966 0.23247815 7.84997186 -0.5625 9.8125 C-0.99691406 10.87082031 -1.43132813 11.92914063 -1.87890625 13.01953125 C-2.75742045 15.35509339 -3.47579202 17.56743939 -4 20 C-4.66 20 -5.32 20 -6 20 C-6.13277344 20.61488281 -6.26554688 21.22976562 -6.40234375 21.86328125 C-6.57894531 22.67152344 -6.75554688 23.47976562 -6.9375 24.3125 C-7.11152344 25.11300781 -7.28554688 25.91351563 -7.46484375 26.73828125 C-8 29 -8 29 -9 32 C-9.66 32 -10.32 32 -11 32 C-11.0825 32.94875 -11.165 33.8975 -11.25 34.875 C-11.83781367 39.07488604 -13.37787358 42.72957163 -15.01171875 46.62109375 C-16.15402256 49.37074996 -17.10361372 52.16144345 -18 55 C-18.66 55 -19.32 55 -20 55 C-20.13277344 55.69867188 -20.26554688 56.39734375 -20.40234375 57.1171875 C-20.66724609 58.48230469 -20.66724609 58.48230469 -20.9375 59.875 C-21.19853516 61.23238281 -21.19853516 61.23238281 -21.46484375 62.6171875 C-22 65 -22 65 -23 67 C-23.66 67 -24.32 67 -25 67 C-25.66 68.32 -26.32 69.64 -27 71 C-34.92 71 -42.84 71 -51 71 C-51 70.67 -51 70.34 -51 70 C-50.34926514 69.9906543 -49.69853027 69.98130859 -49.02807617 69.97167969 C-46.08044494 69.91800507 -43.13440607 69.8343545 -40.1875 69.75 C-39.16333984 69.73582031 -38.13917969 69.72164063 -37.08398438 69.70703125 C-36.10107422 69.67480469 -35.11816406 69.64257812 -34.10546875 69.609375 C-33.19949951 69.58842773 -32.29353027 69.56748047 -31.36010742 69.54589844 C-28.87153452 69.19831733 -28.87153452 69.19831733 -27.27246094 67.18530273 C-25.44670156 64.04977468 -24.26695024 60.71997193 -23.0625 57.3125 C-21.22288617 52.25525694 -19.31477843 47.2981058 -17.06640625 42.40625 C-12.76555786 32.70177158 -9.10905476 22.7065548 -5.4296875 12.75390625 C-4.91145833 11.35677083 -4.39322917 9.95963542 -3.875 8.5625 C-3.61074219 7.84384766 -3.34648438 7.12519531 -3.07421875 6.38476562 C-1.11278195 1.11278195 -1.11278195 1.11278195 0 0 Z " fill="#FAECEA" transform="translate(792,59)"/>
<path d="M0 0 C1.875 0.625 1.875 0.625 4 2 C5.25 5.125 5.25 5.125 6 8 C6.66 8 7.32 8 8 8 C8.50833591 9.24663331 9.00631145 10.49749387 9.5 11.75 C9.7784375 12.44609375 10.056875 13.1421875 10.34375 13.859375 C11 16 11 16 11 20 C11.66 20 12.32 20 13 20 C14.44397535 33.12906819 13.09391053 42.85298259 8 55 C7.34 55 6.68 55 6 55 C5.731875 55.78375 5.46375 56.5675 5.1875 57.375 C4 60 4 60 1 62 C1.33170359 58.46182835 2.42748042 56.19576472 4.375 53.3125 C13.08553169 39.77961599 10.19778985 24.82784697 7 10 C6.34 10 5.68 10 5 10 C5 9.01 5 8.02 5 7 C4.34 7 3.68 7 3 7 C0 2.61538462 0 2.61538462 0 0 Z " fill="#FBEFEE" transform="translate(992,30)"/>
<path d="M0 0 C3.875 1.75 3.875 1.75 5 4 C5.29214653 7.45176165 5.27787308 10.91230799 5.3125 14.375 C5.34150391 15.3340625 5.37050781 16.293125 5.40039062 17.28125 C5.46390968 24.29766232 5.46390968 24.29766232 3.3203125 27.54296875 C0.76846402 29.14539212 -1.55325492 30.06942624 -4.4375 30.9375 C-9.27868509 32.55768328 -11.7085022 34.17761546 -15 38 C-15.66 38 -16.32 38 -17 38 C-17 41.63 -17 45.26 -17 49 C-15.68 49.66 -14.36 50.32 -13 51 C-13.99 51.495 -13.99 51.495 -15 52 C-18.55445033 49.15643973 -19.88019205 47.67528118 -20.6875 43.125 C-20.40036968 38.90577942 -18.66609527 36.45647164 -15.7734375 33.46875 C-12.01480357 30.35587256 -7.83165471 29.21813894 -3.1875 28 C0.26452452 27.28338824 0.26452452 27.28338824 2 24 C2.30719227 21.72802667 2.30719227 21.72802667 2.265625 19.21875 C2.26820312 18.29449219 2.27078125 17.37023437 2.2734375 16.41796875 C2.26570313 15.45503906 2.25796875 14.49210937 2.25 13.5 C2.25773437 12.53707031 2.26546875 11.57414062 2.2734375 10.58203125 C2.26957031 9.19564453 2.26957031 9.19564453 2.265625 7.78125 C2.26336914 6.93626953 2.26111328 6.09128906 2.25878906 5.22070312 C2.13713548 2.71315422 2.13713548 2.71315422 0 0 Z " fill="#FBEFED" transform="translate(1082,18)"/>
<path d="M0 0 C3.501554 1.4006216 4.46483677 2.62264089 6 6 C6.47179688 6.46664062 6.94359375 6.93328125 7.4296875 7.4140625 C13.4721225 13.51662123 14.90217027 22.92368658 15.03515625 31.18359375 C14.79399722 33.91869007 14.08723976 35.86297936 12.6171875 38.171875 C8.44669981 41.08499177 4.19923248 40.42134493 -0.75 40.25 C-1.73355469 40.23195312 -2.71710938 40.21390625 -3.73046875 40.1953125 C-6.15463783 40.14824126 -8.57682059 40.08250742 -11 40 C-11 39.67 -11 39.34 -11 39 C-9.74703125 38.97421875 -8.4940625 38.9484375 -7.203125 38.921875 C-5.55204877 38.86558831 -3.90100845 38.8082411 -2.25 38.75 C-1.0125 38.72873047 -1.0125 38.72873047 0.25 38.70703125 C4.04693297 38.55392911 6.35121052 38.43815645 9.55078125 36.27734375 C12.21137265 32.0964144 11.5434816 27.77487404 11 23 C9.34440295 15.81828847 6.03527681 9.14063862 2 3 C1.34 2.67 0.68 2.34 0 2 C0 1.34 0 0.68 0 0 Z " fill="#F9E3E1" transform="translate(1136,32)"/>
<path d="M0 0 C1.34016504 2.68033008 0.74727301 4.03498002 0.125 6.9375 C-0.05804687 7.81277344 -0.24109375 8.68804687 -0.4296875 9.58984375 C-1 12 -1 12 -2 15 C-2.66 15 -3.32 15 -4 15 C-4.13277344 15.69867188 -4.26554688 16.39734375 -4.40234375 17.1171875 C-4.57894531 18.02726562 -4.75554688 18.93734375 -4.9375 19.875 C-5.19853516 21.23238281 -5.19853516 21.23238281 -5.46484375 22.6171875 C-6 25 -6 25 -7 27 C-7.66 27 -8.32 27 -9 27 C-9.66 28.32 -10.32 29.64 -11 31 C-18.92 31 -26.84 31 -35 31 C-35 30.67 -35 30.34 -35 30 C-34.34926514 29.9906543 -33.69853027 29.98130859 -33.02807617 29.97167969 C-30.08044494 29.91800507 -27.13440607 29.8343545 -24.1875 29.75 C-23.16333984 29.73582031 -22.13917969 29.72164062 -21.08398438 29.70703125 C-20.10107422 29.67480469 -19.11816406 29.64257812 -18.10546875 29.609375 C-17.19949951 29.58842773 -16.29353027 29.56748047 -15.36010742 29.54589844 C-12.87153452 29.19831733 -12.87153452 29.19831733 -11.27246094 27.18530273 C-9.44673201 24.04982698 -8.26669566 20.72003329 -7.0625 17.3125 C-4.92409947 11.4248863 -2.63979084 5.68570335 0 0 Z " fill="#FAEAE8" transform="translate(776,99)"/>
<path d="M0 0 C0.66 0 1.32 0 2 0 C7.55580866 12.48519362 7.55580866 12.48519362 8 19 C8.66 19 9.32 19 10 19 C10.50512244 20.60256108 11.00391627 22.20711792 11.5 23.8125 C11.7784375 24.70582031 12.056875 25.59914062 12.34375 26.51953125 C13 29 13 29 13 32 C13.66 32 14.32 32 15 32 C15.33 33.65 15.66 35.3 16 37 C14 37 14 37 12.5 35.5625 C11.0544688 33.09305087 10.60114905 31.50998054 10.0625 28.75 C9.12214868 23.99384293 7.25954126 20.24989529 5 16 C2.35189311 10.638745 0.50910646 5.98200088 0 0 Z " fill="#F9E6E4" transform="translate(850,122)"/>
<path d="M0 0 C1.875 0.25 1.875 0.25 4 1 C6.8632702 5.50626442 6.40578492 10.26794216 6.4375 15.4375 C6.47037109 16.37916016 6.50324219 17.32082031 6.53710938 18.29101562 C6.57301127 22.91583193 6.4931698 25.28744862 3.8046875 29.171875 C0.59647173 31.263024 -0.59880049 31.45620791 -4.3125 30.8125 C-5.19550781 30.67457031 -6.07851562 30.53664062 -6.98828125 30.39453125 C-7.98408203 30.19923828 -7.98408203 30.19923828 -9 30 C-9 29.67 -9 29.34 -9 29 C-5.37 28.67 -1.74 28.34 2 28 C3.01973129 24.94080612 3.11533602 22.87581975 3.09765625 19.67578125 C3.09282227 18.13374023 3.09282227 18.13374023 3.08789062 16.56054688 C3.07951172 15.48869141 3.07113281 14.41683594 3.0625 13.3125 C3.05798828 12.22904297 3.05347656 11.14558594 3.04882812 10.02929688 C3.03703743 7.35280915 3.02058063 4.67643223 3 2 C2.01 1.67 1.02 1.34 0 1 C0 0.67 0 0.34 0 0 Z " fill="#FAEBE9" transform="translate(1081,143)"/>
<path d="M0 0 C0.66 0 1.32 0 2 0 C2.89699917 3.0753621 3.12866019 5.82858519 3.1328125 9.02734375 C3.13410156 9.98447266 3.13539062 10.94160156 3.13671875 11.92773438 C3.13285156 12.92095703 3.12898438 13.91417969 3.125 14.9375 C3.12886719 15.92685547 3.13273437 16.91621094 3.13671875 17.93554688 C3.13542969 18.89396484 3.13414063 19.85238281 3.1328125 20.83984375 C3.13168457 21.70988037 3.13055664 22.57991699 3.12939453 23.47631836 C2.9964076 26.07006534 2.57137724 28.46965561 2 31 C1.01 31 0.02 31 -1 31 C-0.75552124 29.70231689 -0.75552124 29.70231689 -0.50610352 28.37841797 C-0.02489418 25.16617734 0.11437593 22.1889312 0.09765625 18.9453125 C0.09443359 17.83671875 0.09121094 16.728125 0.08789062 15.5859375 C0.07951172 14.44382812 0.07113281 13.30171875 0.0625 12.125 C0.05573242 10.37703125 0.05573242 10.37703125 0.04882812 8.59375 C0.03708781 5.72911355 0.0206657 2.86458367 0 0 Z " fill="#FDFCFC" transform="translate(1151,113)"/>
<path d="M0 0 C0.66 0.33 1.32 0.66 2 1 C-4.12580921 7.89153536 -12.06204091 11.07534976 -21 13 C-22.66601865 13.04647193 -24.33438397 13.05916931 -26 13 C-23.10014056 11.49661665 -20.16952698 10.24332121 -17.125 9.0625 C-10.95323496 6.6100831 -5.45604034 3.76726595 0 0 Z " fill="#F9E4E2" transform="translate(995,158)"/>
<path d="M0 0 C0.33 0 0.66 0 1 0 C2.44495384 9.94058609 2.44495384 9.94058609 0.6875 14.125 C-1.28218777 16.31354197 -2.2149849 16.95864128 -5.15478516 17.11352539 C-6.02409668 17.10828857 -6.8934082 17.10305176 -7.7890625 17.09765625 C-8.73007813 17.09443359 -9.67109375 17.09121094 -10.640625 17.08789062 C-12.11789062 17.07532227 -12.11789062 17.07532227 -13.625 17.0625 C-14.61757812 17.05798828 -15.61015625 17.05347656 -16.6328125 17.04882812 C-19.0886016 17.03702145 -21.54427104 17.020554 -24 17 C-24 16.67 -24 16.34 -24 16 C-22.74703125 15.97421875 -21.4940625 15.9484375 -20.203125 15.921875 C-18.55204877 15.86558831 -16.90100845 15.8082411 -15.25 15.75 C-14.0125 15.72873047 -14.0125 15.72873047 -12.75 15.70703125 C-7.72459701 15.56044989 -7.72459701 15.56044989 -3.546875 12.953125 C-3.03640625 12.30859375 -2.5259375 11.6640625 -2 11 C-1.34 11 -0.68 11 0 11 C0 7.37 0 3.74 0 0 Z " fill="#FCF3F2" transform="translate(1149,55)"/>
<path d="M0 0 C0.66 0 1.32 0 2 0 C3.4606285 2.64738916 4 3.89448334 4 7 C4.66 7 5.32 7 6 7 C7.0394775 10.1184325 7.11494838 12.27475586 7.09765625 15.54296875 C7.09443359 16.61611328 7.09121094 17.68925781 7.08789062 18.79492188 C7.07951172 19.91447266 7.07113281 21.03402344 7.0625 22.1875 C7.05798828 23.31865234 7.05347656 24.44980469 7.04882812 25.61523438 C7.03703498 28.41020927 7.0205765 31.2050782 7 34 C6.67 34 6.34 34 6 34 C5.98582031 32.69546875 5.97164062 31.3909375 5.95703125 30.046875 C5.73846471 20.56961236 5.35301984 12.70603968 1.05859375 4.1171875 C0 2 0 2 0 0 Z " fill="#F9E4E2" transform="translate(1003,101)"/>
<path d="M0 0 C0.66 0.33 1.32 0.66 2 1 C0.625 3.5 0.625 3.5 -1 6 C-1.66 6 -2.32 6 -3 6 C-3 9.63 -3 13.26 -3 17 C-1.68 17.66 -0.36 18.32 1 19 C0.34 19.33 -0.32 19.66 -1 20 C-4.55445033 17.15643973 -5.88019205 15.67528118 -6.6875 11.125 C-6.41405014 6.16518528 -3.45763693 3.29298755 0 0 Z " fill="#F8E1DE" transform="translate(1068,50)"/>
<path d="M0 0 C1 2 1 2 0.0625 5.125 C-0.288125 6.07375 -0.63875 7.0225 -1 8 C-1.66 8 -2.32 8 -3 8 C-3.103125 9.03125 -3.20625 10.0625 -3.3125 11.125 C-3.99127797 14.95083945 -5.11158795 17.63370025 -7 21 C-8.26077541 17.21767377 -7.4978822 15.83852129 -6.1875 12.125 C-5.83042969 11.09632812 -5.47335937 10.06765625 -5.10546875 9.0078125 C-4.55826172 7.51894531 -4.55826172 7.51894531 -4 6 C-3.66613281 5.06929688 -3.33226562 4.13859375 -2.98828125 3.1796875 C-2 1 -2 1 0 0 Z " fill="#FBEFED" transform="translate(784,83)"/>
<path d="M0 0 C0.99 0.33 1.98 0.66 3 1 C3.33 2.65 3.66 4.3 4 6 C4.66 6 5.32 6 6 6 C6.13277344 6.60328125 6.26554687 7.2065625 6.40234375 7.828125 C6.57894531 8.62734375 6.75554687 9.4265625 6.9375 10.25 C7.19853516 11.43335937 7.19853516 11.43335937 7.46484375 12.640625 C7.947556 14.76878703 8.46163178 16.88532842 9 19 C7.13671875 18.43359375 7.13671875 18.43359375 5 17 C3.76953125 13.84765625 3.76953125 13.84765625 2.8125 10.0625 C2.32716797 8.19271484 2.32716797 8.19271484 1.83203125 6.28515625 C1.55746094 5.20105469 1.28289062 4.11695312 1 3 C0.67 2.01 0.34 1.02 0 0 Z " fill="#F7DCD8" transform="translate(1056,116)"/>
<path d="M0 0 C1.34016504 2.68033008 0.74727301 4.03498002 0.125 6.9375 C-0.05804687 7.81277344 -0.24109375 8.68804687 -0.4296875 9.58984375 C-1 12 -1 12 -2 15 C-2.66 15 -3.32 15 -4 15 C-4 15.99 -4 16.98 -4 18 C-4.99 18.33 -5.98 18.66 -7 19 C-5.17778624 12.38757278 -2.94776396 6.19479329 0 0 Z " fill="#FAECEA" transform="translate(776,99)"/>
<path d="M0 0 C0.66 0.33 1.32 0.66 2 1 C2.40729228 3.32156597 2.74438677 5.6568787 3 8 C3.66 8 4.32 8 5 8 C6.59138085 12.17737474 7.21278058 15.53160785 7 20 C4.86734947 16.8010242 3.34036135 13.50868866 1.8125 10 C1.52697266 9.3709375 1.24144531 8.741875 0.94726562 8.09375 C-1.11727722 3.35183165 -1.11727722 3.35183165 0 0 Z " fill="#F9E4E1" transform="translate(823,53)"/>
<path d="M0 0 C5.28 0 10.56 0 16 0 C16 0.66 16 1.32 16 2 C12.93418931 3.0219369 10.65199926 3.1986365 7.4375 3.25 C6.46683594 3.27578125 5.49617188 3.3015625 4.49609375 3.328125 C3.26052734 3.16570312 3.26052734 3.16570312 2 3 C1.34 2.01 0.68 1.02 0 0 Z " fill="#F6D7D4" transform="translate(1099,171)"/>
<path d="M0 0 C0.33 0.66 0.66 1.32 1 2 C-0.09346881 3.34212062 -1.2001575 4.67347975 -2.3125 6 C-3.23482422 7.11375 -3.23482422 7.11375 -4.17578125 8.25 C-6 10 -6 10 -9 10 C-8.06862408 8.70391053 -7.1296434 7.41328368 -6.1875 6.125 C-5.66542969 5.40570313 -5.14335938 4.68640625 -4.60546875 3.9453125 C-3 2 -3 2 0 0 Z " fill="#FDF7F6" transform="translate(1005,149)"/>
<path d="M0 0 C0.66 0 1.32 0 2 0 C3.40333568 5.76926889 2.67296616 11.18143105 2 17 C1.67 17 1.34 17 1 17 C0.67 11.39 0.34 5.78 0 0 Z " fill="#F5D3CF" transform="translate(1147,49)"/>
<path d="M0 0 C0.66 0.66 1.32 1.32 2 2 C1.54545455 7.45454545 1.54545455 7.45454545 -1 10 C-1.99 9.67 -2.98 9.34 -4 9 C-3.525625 8.443125 -3.05125 7.88625 -2.5625 7.3125 C-0.87604004 4.81653926 -0.41046893 2.9553763 0 0 Z " fill="#FCF3F2" transform="translate(865,159)"/>
<path d="M0 0 C0.66 0 1.32 0 2 0 C2 0.99 2 1.98 2 3 C2.66 3 3.32 3 4 3 C4.33 4.65 4.66 6.3 5 8 C4.34 8 3.68 8 3 8 C0.25624329 5.04518508 0 4.22528092 0 0 Z " fill="#F7DCD9" transform="translate(861,151)"/>
<path d="M0 0 C1 2 1 2 0.25 4.9375 C-0.92931463 7.82682085 -1.78177928 8.95850565 -4 11 C-3.5247412 9.35303396 -3.04468109 7.70745272 -2.5625 6.0625 C-2.29566406 5.14597656 -2.02882813 4.22945313 -1.75390625 3.28515625 C-1 1 -1 1 0 0 Z " fill="#F3C7C2" transform="translate(776,99)"/>
<path d="M0 0 C1 3 1 3 -0.4375 6.1875 C-1.2109375 7.5796875 -1.2109375 7.5796875 -2 9 C-3.21185923 5.36442231 -2.59260392 4.36216382 -1 1 C-0.67 0.67 -0.34 0.34 0 0 Z " fill="#FDF9F9" transform="translate(779,95)"/>
<path d="" fill="#E7332B" transform="translate(0,0)"/>
<path d="M0 0 C2 1 2 1 2 1 Z " fill="#E9746A" transform="translate(453,118)"/>
<path d="M0 0 C2 1 2 1 2 1 Z " fill="#E9746A" transform="translate(453,65)"/>
<path d="" fill="#E7332B" transform="translate(0,0)"/>
<path d="" fill="#D2695A" transform="translate(0,0)"/>
<path d="" fill="#FF7F7F" transform="translate(0,0)"/>
<path d="" fill="#CB655B" transform="translate(0,0)"/>
<path d="" fill="#000000" transform="translate(0,0)"/>
<path d="" fill="#D46A55" transform="translate(0,0)"/>
<path d="" fill="#D47163" transform="translate(0,0)"/>
<path d="" fill="#D05C5C" transform="translate(0,0)"/>
<path d="" fill="#CC6666" transform="translate(0,0)"/>
<path d="" fill="#FF7F7F" transform="translate(0,0)"/>
<path d="" fill="#D46A6A" transform="translate(0,0)"/>
<path d="" fill="#D46A55" transform="translate(0,0)"/>
<path d="" fill="#C4624E" transform="translate(0,0)"/>
<path d="" fill="#CC664C" transform="translate(0,0)"/>
<path d="" fill="#CC664C" transform="translate(0,0)"/>
<path d="" fill="#C4624E" transform="translate(0,0)"/>
<path d="" fill="#D46A55" transform="translate(0,0)"/>
<path d="" fill="#D46A6A" transform="translate(0,0)"/>
<path d="" fill="#FF7F7F" transform="translate(0,0)"/>
<path d="" fill="#CC6666" transform="translate(0,0)"/>
<path d="" fill="#D47163" transform="translate(0,0)"/>
<path d="" fill="#D05C5C" transform="translate(0,0)"/>
<path d="" fill="#D46A55" transform="translate(0,0)"/>
<path d="" fill="#CB655B" transform="translate(0,0)"/>
<path d="" fill="#D2695A" transform="translate(0,0)"/>
<path d="" fill="#FF7F7F" transform="translate(0,0)"/>
</svg>
