<?xml version="1.0" encoding="UTF-8"?>
<svg version="1.1" xmlns="http://www.w3.org/2000/svg" width="937" height="308">
<path d="M0 0 C0.84137512 -0.01283524 1.68275024 -0.02567047 2.54962158 -0.03889465 C3.46104919 -0.04628159 4.37247681 -0.05366852 5.31152344 -0.0612793 C6.24889343 -0.06935104 7.18626343 -0.07742279 8.15203857 -0.08573914 C10.13926338 -0.09958491 12.12651203 -0.11030485 14.11376953 -0.11816406 C17.14499389 -0.13535117 20.17512033 -0.17922969 23.20605469 -0.22338867 C25.13703625 -0.23351788 27.06802709 -0.24203327 28.99902344 -0.2487793 C29.90235413 -0.26628738 30.80568481 -0.28379547 31.73638916 -0.30183411 C37.30729354 -0.28274937 40.53563247 0.40984966 44.92089844 4.17700195 C46.57324219 5.98193359 46.57324219 5.98193359 47.85839844 7.8371582 C48.35436523 8.53969727 48.85033203 9.24223633 49.36132812 9.96606445 C49.87598633 10.71629883 50.39064453 11.4665332 50.92089844 12.23950195 C52.04994494 13.84578798 53.1801975 15.4512268 54.31152344 17.0559082 C54.89611328 17.89009277 55.48070312 18.72427734 56.08300781 19.58374023 C59.80691654 24.83817149 63.67311566 29.98904236 67.51464844 35.15771484 C68.07667969 35.91689209 68.63871094 36.67606934 69.21777344 37.45825195 C69.71631836 38.12920898 70.21486328 38.80016602 70.72851562 39.49145508 C71.92089844 41.17700195 71.92089844 41.17700195 72.92089844 43.17700195 C76.58625411 43.5258279 78.4697679 43.45051191 81.65917969 41.5168457 C87.10484113 36.43477926 89.4999721 33.132269 89.79589844 25.55200195 C89.80105469 24.27067383 89.80621094 22.9893457 89.81152344 21.66918945 C90.01821854 15.06970998 92.87524909 11.09480787 97.23339844 6.36450195 C104.20873781 -0.04052665 109.93936596 -0.15248627 119.20214844 -0.1237793 C123.97399952 0.26217925 128.18358102 0.78322188 131.99511719 3.84106445 C133.70136723 5.91500518 135.34939469 7.99867993 136.92089844 10.17700195 C137.35917969 10.77512695 137.79746094 11.37325195 138.24902344 11.98950195 C142.03032774 18.16740757 141.73000079 25.17295434 140.92089844 32.17700195 C138.96101931 38.89509031 134.5764716 42.91004925 129.35839844 47.36450195 C125.94707502 49.16319975 123.68804767 49.64149866 119.92089844 50.17700195 C110.79506397 51.50480524 106.55969258 56.30367892 100.92089844 63.17700195 C111.57325867 63.70718722 111.57325867 63.70718722 121.42871094 60.6574707 C123.02649442 58.89247732 124.46546383 57.05925022 125.92089844 55.17700195 C132.55088341 50.89513666 140.26117585 51.44512835 147.92089844 52.17700195 C155.38936301 54.13441545 160.83517085 59.88020674 164.85839844 66.23950195 C167.29134143 72.96050696 167.31514314 82.08927226 164.35839844 88.61450195 C161.07668088 93.99929202 156.26000705 99.54022218 150.19824219 101.73950195 C142.55517641 103.20780962 133.49229653 103.76656037 126.67749023 99.49951172 C124.90652178 98.166178 123.7018851 96.78342466 122.29199219 95.08325195 C119.08868496 91.82055953 116.46601471 91.43958449 111.99511719 91.29418945 C111.186875 91.29676758 110.37863281 91.2993457 109.54589844 91.30200195 C108.71445312 91.28137695 107.88300781 91.26075195 107.02636719 91.23950195 C104.99164188 91.19272666 102.95615684 91.18126874 100.92089844 91.17700195 C106.49123101 97.96687479 110.68256235 102.86049948 119.73339844 104.05200195 C126.79517307 105.06833676 132.07310412 107.56433243 136.54980469 113.2434082 C141.34119946 120.65573687 141.60003257 127.45497929 140.92089844 136.17700195 C140.0846139 139.29543647 138.82174793 141.58290147 136.92089844 144.17700195 C136.40011719 144.89887695 135.87933594 145.62075195 135.34277344 146.36450195 C131.55935003 151.13638733 129.02426447 152.87461004 122.92089844 154.17700195 C113.15094057 155.06800553 105.66084417 154.8807303 97.99511719 148.59887695 C94.15525937 145.06906976 90.95586845 141.40585046 89.92089844 136.17700195 C89.89032675 133.73960464 89.87064747 131.30206021 89.85839844 128.86450195 C89.51127285 121.27301635 87.115479 117.92915225 81.65917969 112.8371582 C78.32791159 110.81748782 76.74265508 110.3732198 72.92089844 111.17700195 C71.04674966 113.14280387 69.78189482 114.79007869 68.35839844 117.05200195 C67.49778586 118.33547144 66.63573206 119.61797536 65.77246094 120.8996582 C65.31645508 121.58946777 64.86044922 122.27927734 64.390625 122.98999023 C61.76831817 126.89208734 58.99510349 130.68541971 56.23339844 134.48950195 C55.39905273 135.64168213 55.39905273 135.64168213 54.54785156 136.81713867 C53.00882146 138.93951082 51.46595659 141.05901554 49.92089844 143.17700195 C48.81101562 144.69874023 48.81101562 144.69874023 47.67871094 146.2512207 C47.07800781 147.05172852 46.47730469 147.85223633 45.85839844 148.67700195 C45.12943359 149.6515332 45.12943359 149.6515332 44.38574219 150.64575195 C42.19541366 152.93537537 39.99050403 154.03601017 36.84107971 154.45115662 C36.1011528 154.46179642 35.36122589 154.47243622 34.59887695 154.48339844 C33.7544252 154.49938583 32.90997345 154.51537323 32.03993225 154.53184509 C30.68356911 154.53988914 30.68356911 154.53988914 29.29980469 154.5480957 C28.36289291 154.55712418 27.42598114 154.56615265 26.4606781 154.57545471 C24.48122346 154.58994719 22.50172103 154.59884146 20.5222168 154.60253906 C17.49738877 154.61444688 14.47459366 154.66365136 11.45019531 154.71411133 C9.52507504 154.72357465 7.59994227 154.73081012 5.67480469 154.7355957 C4.77258682 154.75512802 3.87036896 154.77466034 2.94081116 154.79478455 C-1.55915785 154.7625176 -3.44850166 154.67990757 -7.0715332 151.79052734 C-8.06527954 150.49683228 -8.06527954 150.49683228 -9.07910156 149.17700195 C-9.69785156 148.39325195 -10.31660156 147.60950195 -10.95410156 146.80200195 C-12.52778607 143.13007143 -12.07364256 141.02256046 -11.07910156 137.17700195 C-8.36878258 132.02123607 -5.18752371 127.47232954 -1.64160156 122.86450195 C3.3566422 116.28884215 8.23490567 109.63883781 13.03466797 102.91699219 C15.7577719 99.1177235 18.52452691 95.37118389 21.40917969 91.69262695 C21.96734375 90.97461914 22.52550781 90.25661133 23.10058594 89.5168457 C24.16001298 88.16088047 25.23103461 86.81386504 26.31542969 85.4777832 C28.47935124 82.69643838 29.80138624 80.68746082 30.61230469 77.22387695 C29.57595351 72.65690568 26.98326765 69.74645297 24.04589844 66.17700195 C22.83704555 64.65500952 21.63003319 63.13155355 20.42480469 61.60668945 C19.82555176 60.85484375 19.22629883 60.10299805 18.60888672 59.32836914 C16.30100987 56.38694438 14.12968249 53.36236011 11.98339844 50.30200195 C9.14692922 46.27438168 6.26999465 42.28309385 3.33105469 38.3293457 C2.70513428 37.48678223 2.07921387 36.64421875 1.43432617 35.77612305 C0.20656027 34.12693266 -1.02423542 32.47999202 -2.25854492 30.83569336 C-12.32480823 17.30249517 -12.32480823 17.30249517 -12.07910156 10.17700195 C-9.16413994 4.4033159 -6.78561143 0.09010426 0 0 Z " fill="#E0695B" transform="translate(325.0791015625,137.822998046875)"/>
<path d="M0 0 C0.98097656 -0.02384766 1.96195313 -0.04769531 2.97265625 -0.07226562 C7.62191222 -0.06285418 10.37934859 0.09669139 14.3828125 2.59765625 C15.32967365 3.55455961 16.24186745 4.54648475 17.125 5.5625 C17.68034424 6.16271973 18.23568848 6.76293945 18.80786133 7.38134766 C22.99902946 12.02442007 26.86407954 16.92808898 30.6875 21.875 C31.58758789 23.03515625 31.58758789 23.03515625 32.50585938 24.21875 C37.39879037 30.55558033 42.14915264 36.99122831 46.87329102 43.4543457 C51.4189766 49.65485091 56.11396222 55.72506903 60.85961914 61.77319336 C65.78115685 68.06770113 70.53726687 74.47540613 75.24414062 80.93164062 C78.05198217 84.77767568 80.89877456 88.58317458 83.82836914 92.33764648 C84.44869522 93.13323471 85.0690213 93.92882294 85.70814514 94.7485199 C86.17570724 95.34713333 86.64326935 95.94574677 87.125 96.5625 C87.12047569 94.90998734 87.12047569 94.90998734 87.11585999 93.22409058 C87.09197426 82.83613072 87.10479965 72.44877666 87.15346622 62.06089592 C87.17730893 56.7204137 87.18826623 51.38055554 87.16967773 46.04003906 C87.15221027 40.8849277 87.16871846 35.73093698 87.20867729 30.57596207 C87.21796358 28.61043352 87.21505607 26.64480792 87.19969368 24.67931747 C87.18024248 21.92282087 87.20434479 19.16985608 87.23852539 16.41357422 C87.2227092 15.60293015 87.20689301 14.79228607 87.19059753 13.95707703 C87.27177169 10.54973393 87.43316583 8.40664229 89.63693047 5.71771622 C94.99080981 0.96980821 99.35298032 0.26939161 106.3984375 0.34375 C110.96749246 0.71032175 113.79794457 2.45852789 117.25019646 5.33044243 C119.57191568 8.09457789 119.64181074 9.45235698 119.68435669 13.02542114 C119.70694046 14.13555069 119.72952423 15.24568024 119.75279236 16.38945007 C119.75938622 18.20978508 119.75938622 18.20978508 119.76611328 20.06689453 C119.78608871 21.34864059 119.80606415 22.63038666 119.8266449 23.95097351 C119.88016458 27.46572761 119.90823222 30.9802518 119.93009424 34.49532938 C119.95042803 37.43482425 119.9825269 40.37414503 120.01440895 43.31353366 C120.08925344 50.2551716 120.14284554 57.19675667 120.18359375 64.13867188 C120.2259242 71.28273675 120.30503908 78.42572406 120.40232861 85.56923401 C120.484627 91.71367885 120.54318475 97.858048 120.58317935 104.00291336 C120.60730498 107.66773816 120.640307 111.33191622 120.69644547 114.99640274 C120.75801635 119.09177765 120.77005963 123.18590776 120.77783203 127.28173828 C120.80247025 128.48314957 120.82710846 129.68456085 120.85249329 130.92237854 C120.81262308 138.92592031 119.10569369 144.24291888 114.125 150.5625 C109.89591407 154.59935476 106.30164969 155.03845666 100.6875 155.19140625 C94.49773601 153.6722721 90.55257692 147.92086922 86.875 143.0625 C86.39957764 142.44576416 85.92415527 141.82902832 85.43432617 141.19360352 C84.45707029 139.92442105 83.48268576 138.65302234 82.51123047 137.37939453 C81.26542114 135.74654617 80.01024809 134.12085214 78.75390625 132.49609375 C76.20017335 129.19303619 73.66068684 125.87941673 71.125 122.5625 C70.54621094 121.80582031 69.96742187 121.04914063 69.37109375 120.26953125 C62.03403084 110.6725927 54.73018068 101.05275525 47.5 91.375 C42.07190999 84.1111378 36.55106336 76.92681971 30.96777344 69.78173828 C27.13233563 64.87024103 23.36315632 59.91581173 19.640625 54.91796875 C16.97217637 51.34551052 14.26459355 47.80314448 11.55834961 44.25927734 C9.48983904 41.54918746 7.42640577 38.83528527 5.36328125 36.12109375 C2.52535591 32.39002759 -0.33392418 28.67668227 -3.20703125 24.97265625 C-4.57578235 23.19030497 -5.94428136 21.40776006 -7.3125 19.625 C-7.95719238 18.80322266 -8.60188477 17.98144531 -9.26611328 17.13476562 C-15.16392904 9.40382325 -15.16392904 9.40382325 -14.875 4.5625 C-11.83376639 -1.09495011 -5.63969791 -0.06249991 0 0 Z " fill="#E0675A" transform="translate(24.875,137.4375)"/>
<path d="M0 0 C3.57236674 1.9270028 5.69560702 4.08682105 7 8 C7.61449131 12.60868481 7.78836139 16.63965326 4.9375 20.5 C1.45211981 23.46628101 -0.5048066 23.67891476 -5 24 C-9.63906467 25.32736659 -12.45848176 28.06377507 -15.73828125 31.4453125 C-16.52672676 32.24012527 -16.52672676 32.24012527 -17.33110046 33.05099487 C-18.9987766 34.73538611 -20.65568349 36.42993261 -22.3125 38.125 C-23.44526708 39.27282316 -24.57872355 40.41996641 -25.71289062 41.56640625 C-28.4833047 44.36979437 -31.24411133 47.18233431 -34 50 C-33.34 51.11375 -32.68 52.2275 -32 53.375 C-30 56.75 -30 56.75 -30 59 C-24.53662704 58.98056824 -19.07486228 58.92881706 -13.61206055 58.84741211 C-11.75472787 58.82425012 -9.89726418 58.8098406 -8.03979492 58.80444336 C-5.365545 58.79514038 -2.69335032 58.75412303 -0.01953125 58.70703125 C1.2213752 58.71293022 1.2213752 58.71293022 2.48735046 58.71894836 C6.85792874 58.60894297 8.4772236 58.44147397 11.9387207 55.51831055 C12.61894287 54.68726807 13.29916504 53.85622559 14 53 C17.48697902 51.25651049 21.19590063 51.41917275 25 52 C28.57623788 53.9137306 30.69762236 56.09286708 32 60 C32.34531267 65.35234642 32.47574585 68.65531768 29 73 C27.10523066 75.11339657 25.7566758 75.8815889 22.953125 76.3203125 C17.48005642 76.59580253 14.29182418 75.64805056 10 72 C9.67 71.34 9.34 70.68 9 70 C-10.305 69.505 -10.305 69.505 -30 69 C-30.66 70.98 -31.32 72.96 -32 75 C-32.66 75.99 -33.32 76.98 -34 78 C-30.52249986 81.55169189 -27.0352334 85.09338919 -23.53857422 88.6262207 C-22.35061902 89.82925642 -21.16537105 91.03497173 -19.98291016 92.2434082 C-18.28212936 93.98060371 -16.57182465 95.70790934 -14.859375 97.43359375 C-14.07007599 98.24611855 -14.07007599 98.24611855 -13.26483154 99.07505798 C-9.22993923 103.11177807 -7.09552273 103.88569876 -1.5625 104.1875 C2.15736312 105.03588984 3.85800715 106.0214867 6.12109375 109.12109375 C7.79234731 112.69386247 7.65109876 116.17125623 7 120 C5.40784408 123.66195861 3.59590196 126.20204902 0 128 C-4.77002542 128.74645436 -8.10753355 128.45434656 -12.4375 126.25 C-14.90358238 124.08465937 -15.87443526 122.99568644 -17 120 C-16.85364871 118.51614151 -16.6507495 117.03728175 -16.40625 115.56640625 C-16.29959017 109.51457213 -19.52420399 106.10066784 -23.47045898 101.94107056 C-24.57164831 100.82448645 -25.68251087 99.71736974 -26.80224609 98.61938477 C-28.48728943 96.95009176 -30.09477682 95.22565801 -31.70703125 93.48632812 C-37.61510818 87.4097255 -42.17025529 84.06092888 -50.84375 83.75390625 C-53.25003568 83.74543125 -55.59633719 83.84036358 -58 84 C-58.27295898 84.57999756 -58.54591797 85.15999512 -58.82714844 85.75756836 C-59.98693849 87.97502707 -61.27259253 89.87329231 -62.765625 91.87890625 C-63.31782715 92.6268042 -63.8700293 93.37470215 -64.43896484 94.14526367 C-65.67147079 95.79032183 -66.91169956 97.42961588 -68.15869141 99.0637207 C-71.45496275 103.41396063 -74.49343057 107.73001316 -77.1953125 112.4765625 C-84.69609937 125.08782664 -84.69609937 125.08782664 -90.95703125 126.81640625 C-98.03053293 127.6211759 -104.98164338 127.06823643 -112 126 C-110.25094834 122.37841711 -108.10373354 119.18782726 -105.75 115.9375 C-105.09898315 115.03209473 -105.09898315 115.03209473 -104.43481445 114.10839844 C-100.14097772 108.15559635 -95.77795379 102.25351474 -91.41430664 96.35180664 C-86.55827954 89.77837986 -81.76453291 83.1615822 -76.9987793 76.52246094 C-76.48742432 75.8112207 -75.97606934 75.09998047 -75.44921875 74.3671875 C-74.99893311 73.73925293 -74.54864746 73.11131836 -74.0847168 72.46435547 C-73 71 -73 71 -72 70 C-70.73368348 65.14875926 -70.62134108 60.47220251 -73.11914062 55.99316406 C-76.23328326 51.45827373 -79.77859228 47.26552777 -83.31201172 43.0546875 C-85.6734997 40.18018897 -87.81361832 37.1769305 -89.9375 34.125 C-94.03052673 28.32018806 -98.22019863 22.59009022 -102.4375 16.875 C-103.34326782 15.64740967 -103.34326782 15.64740967 -104.26733398 14.39501953 C-107.42912768 10.09637981 -107.42912768 10.09637981 -110.68774414 5.87158203 C-112 4 -112 4 -112 2 C-92.40268111 -0.98283077 -92.40268111 -0.98283077 -85.74707031 3.52636719 C-81.59332406 7.83419367 -78.71287118 12.98818199 -75.74511719 18.14941406 C-72.61799834 23.25744982 -68.83129074 27.86729462 -65.125 32.5625 C-63.74636019 34.32978225 -62.37342674 36.10153966 -61.0078125 37.87890625 C-60.13600342 39.00147827 -60.13600342 39.00147827 -59.24658203 40.14672852 C-58 42 -58 42 -58 44 C-50.01093975 44.53058397 -43.03951771 44.62149969 -36.62719727 39.32290649 C-34.36467702 37.22504597 -32.20927884 35.05550587 -30.11181641 32.79272461 C-28.48808649 31.04971129 -26.80616373 29.38445677 -25.10546875 27.71679688 C-19.45793921 22.17078178 -19.45793921 22.17078178 -16.35058594 15.07568359 C-16.32560248 12.44858393 -16.32560248 12.44858393 -16.76660156 10.07006836 C-17 8 -17 8 -15.25 4.5 C-10.95046286 -0.27726349 -6.2153501 -1.07532009 0 0 Z " fill="#1F1F1F" transform="translate(445,151)"/>
<path d="M0 0 C7.26 0 14.52 0 22 0 C22.33 16.5 22.66 33 23 50 C23.99 47.36 24.98 44.72 26 42 C31.18842378 36.81157622 35.59352677 34.77496126 42.92602539 34.61938477 C53.78896561 34.64712404 63.02779301 35.9862968 71.21484375 43.8203125 C80.46424161 55.113888 82.28562727 68.91916736 81 83 C79.06452617 96.51419787 73.90890881 108.36601963 63 117 C45.06643859 128.98780346 21.83413489 129.45589915 1 126 C0 125 0 125 -0.12304783 122.92478085 C-0.12212604 122.00390965 -0.12120424 121.08303846 -0.12025452 120.13426208 C-0.12162918 119.08111816 -0.12300385 118.02797424 -0.12442017 116.94291687 C-0.12082489 115.77766983 -0.11722961 114.61242279 -0.11352539 113.41186523 C-0.11367142 112.19252289 -0.11381744 110.97318054 -0.1139679 109.71688843 C-0.11338893 106.36372489 -0.10835968 103.01062226 -0.10139394 99.65746951 C-0.09515983 96.15674438 -0.09455656 92.65601852 -0.09336853 89.1552887 C-0.09025538 82.52190344 -0.08204222 75.88853459 -0.07201904 69.25515658 C-0.06085739 61.70509793 -0.05534732 54.15503851 -0.05032361 46.60497367 C-0.03985959 31.06997268 -0.02206 15.53498909 0 0 Z M26.0625 59.8125 C22.186004 65.80344837 21.71537675 70.97480702 21.8046875 77.8984375 C21.8075174 78.73339752 21.81034729 79.56835754 21.81326294 80.42861938 C21.82439699 83.07756291 21.84948873 85.72615984 21.875 88.375 C21.88503857 90.17838051 21.89416288 91.98176636 21.90234375 93.78515625 C21.9243141 98.19023633 21.95879679 102.59505953 22 107 C24.56010066 107.0457497 27.11937402 107.07912693 29.6796875 107.10546875 C30.39987061 107.11960815 31.12005371 107.13374756 31.86206055 107.14831543 C39.3723904 107.20621917 44.04539091 104.93185979 50.25 100.875 C58.20785057 92.55542895 59.49695405 82.84454785 59.27734375 71.74609375 C58.91309184 66.82612786 57.93046614 63.00017617 55 59 C46.93001002 52.27500835 33.53271495 51.4167717 26.0625 59.8125 Z " fill="#DF6759" transform="translate(749,166)"/>
<path d="M0 0 C36.66241971 0.11280745 36.66241971 0.11280745 50.1640625 9.1328125 C51.5253125 10.03 51.5253125 10.03 52.9140625 10.9453125 C60.89213909 18.70177585 62.92908174 28.29568763 63.215271 39.05865479 C63.28685953 44.29169953 63.25544847 49.52454662 63.2265625 54.7578125 C63.22153645 56.35025901 63.2169755 57.94270705 63.21289062 59.53515625 C63.20197487 63.40108029 63.18477145 67.26692903 63.1640625 71.1328125 C67.4540625 71.7928125 71.7440625 72.4528125 76.1640625 73.1328125 C76.19090562 75.94537531 76.21082438 78.75768491 76.2265625 81.5703125 C76.23494141 82.37275391 76.24332031 83.17519531 76.25195312 84.00195312 C76.2605768 86.04576471 76.216344 88.08965152 76.1640625 90.1328125 C75.1640625 91.1328125 75.1640625 91.1328125 72.20483398 91.24633789 C70.91134033 91.24110107 69.61784668 91.23586426 68.28515625 91.23046875 C67.25516258 91.22834633 67.25516258 91.22834633 66.20436096 91.22618103 C64.00338449 91.22056729 61.80250841 91.20801257 59.6015625 91.1953125 C58.11263167 91.19029926 56.62369926 91.18573605 55.13476562 91.18164062 C51.47779445 91.17144271 47.82104133 91.15187029 44.1640625 91.1328125 C43.8340625 85.5228125 43.5040625 79.9128125 43.1640625 74.1328125 C42.4421875 75.7003125 41.7203125 77.2678125 40.9765625 78.8828125 C37.71144273 85.38553698 33.7980079 88.23046139 27.1640625 91.1328125 C17.82421167 93.49630006 5.90429568 93.46439191 -2.8359375 89.1328125 C-8.97795293 85.19124086 -13.18479555 80.31527997 -14.8359375 73.1328125 C-15.74610442 64.41037956 -15.6171996 56.66210897 -10.8359375 49.1328125 C-10.1759375 48.0809375 -9.5159375 47.0290625 -8.8359375 45.9453125 C-2.81062021 39.28965432 7.40814817 35.81844892 16.1640625 35.1328125 C32.98450331 34.48370782 32.98450331 34.48370782 41.1640625 36.1328125 C40.70583782 32.66339704 40.27274567 29.45886201 39.1640625 26.1328125 C36.91662494 24.98260725 36.91662494 24.98260725 34.1640625 24.1328125 C33.27251465 23.79652832 32.3809668 23.46024414 31.46240234 23.11376953 C27.76146644 22.01307668 24.43189316 21.71581102 20.578125 21.5 C19.52544937 21.43765671 19.52544937 21.43765671 18.45150757 21.37405396 C16.23105328 21.24430181 14.01016563 21.12587938 11.7890625 21.0078125 C10.27469652 20.92132358 8.76037281 20.83409139 7.24609375 20.74609375 C3.55253279 20.5330702 -0.1415039 20.33019591 -3.8359375 20.1328125 C-3.84784486 18.39585023 -3.85627841 16.65886396 -3.86328125 14.921875 C-3.86835693 13.95459473 -3.87343262 12.98731445 -3.87866211 11.99072266 C-3.70341071 0.26790631 -3.70341071 0.26790631 0 0 Z M7.6015625 58.4453125 C5.85667272 61.70749774 5.63133333 63.47981246 6.1640625 67.1328125 C7.5181185 70.26852114 8.3618619 71.7412948 11.453125 73.25 C18.76649994 75.63158896 26.0900464 74.50633878 33 71.40234375 C37.76150226 68.60904369 40.66246786 64.45664805 42.1640625 59.1328125 C42.33204512 56.42394309 42.33204512 56.42394309 42.1640625 54.1328125 C31.61305052 51.51616153 16.04866491 50.82231764 7.6015625 58.4453125 Z " fill="#E06759" transform="translate(658.8359375,200.8671875)"/>
<path d="M0 0 C6.28181862 4.29002247 6.28181862 4.29002247 7.0742445 8.41186333 C7.07964906 9.43279139 7.08505362 10.45371944 7.09062195 11.50558472 C7.10623672 12.68039398 7.1218515 13.85520325 7.13793945 15.06561279 C7.13286377 16.99355682 7.13286377 16.99355682 7.12768555 18.96044922 C7.13801962 20.33061004 7.15000884 21.70075924 7.16352844 23.07089233 C7.19458195 26.79003909 7.19985253 30.50879845 7.19859672 34.22805929 C7.19942721 37.33439139 7.21167023 40.44063944 7.22354633 43.54694569 C7.2509247 50.87689108 7.25624797 58.20663538 7.2487793 65.53662109 C7.24153918 73.09413099 7.27494668 80.65070784 7.32783669 88.20801532 C7.37162781 94.69990772 7.38833247 101.1914988 7.3838008 107.68353665 C7.38147932 111.55947362 7.3897824 115.43465688 7.42487144 119.31045151 C7.45685066 122.95691696 7.45500299 126.60183908 7.42742729 130.24832535 C7.4208566 132.22005435 7.44881883 134.19180423 7.47787476 136.16333008 C7.36757299 144.61643346 7.36757299 144.61643346 5.05225563 147.87646866 C-0.14101828 152.5016064 -4.93013856 153.04031516 -11.7109375 152.96875 C-16.27506254 152.60257378 -19.10154305 150.84886932 -22.56464863 148.00034904 C-24.93744733 145.14928175 -24.94615843 143.67109891 -24.96562195 139.99441528 C-24.98904411 138.23220139 -24.98904411 138.23220139 -25.01293945 136.43438721 C-25.00786377 134.50644318 -25.00786377 134.50644318 -25.00268555 132.53955078 C-25.01301962 131.16938996 -25.02500884 129.79924076 -25.03852844 128.42910767 C-25.06958195 124.70996091 -25.07485253 120.99120155 -25.07359672 117.27194071 C-25.07442721 114.16560861 -25.08667023 111.05936056 -25.09854633 107.95305431 C-25.1259247 100.62310892 -25.13124797 93.29336462 -25.1237793 85.96337891 C-25.11653918 78.40586901 -25.14994668 70.84929216 -25.20283669 63.29198468 C-25.24662781 56.80009228 -25.26333247 50.3085012 -25.2588008 43.81646335 C-25.25647932 39.94052638 -25.2647824 36.06534312 -25.29987144 32.18954849 C-25.33185066 28.54308304 -25.33000299 24.89816092 -25.30242729 21.25167465 C-25.2958566 19.27994565 -25.32381883 17.30819577 -25.35287476 15.33666992 C-25.24257299 6.88356654 -25.24257299 6.88356654 -22.92725563 3.62353134 C-16.4803126 -2.11812605 -8.01708774 -2.91530463 0 0 Z " fill="#E0675A" transform="translate(203.4375,139.25)"/>
<path d="M0 0 C2.45290441 0.01837473 4.90543198 0.02050828 7.35839844 0.02026367 C8.93392251 0.0251763 10.50944405 0.03100351 12.08496094 0.0378418 C13.17263763 0.03951103 13.17263763 0.03951103 14.2822876 0.04121399 C18.35214438 0.07895301 22.20042468 0.42165543 26.19433594 1.20581055 C26.0521403 3.4143811 25.90541747 5.62266042 25.75683594 7.83081055 C25.63501953 9.67545898 25.63501953 9.67545898 25.51074219 11.55737305 C25.22751692 14.82320518 24.75341255 17.97868502 24.19433594 21.20581055 C23.09033447 21.1901001 21.98633301 21.17438965 20.84887695 21.15820312 C16.71711647 21.10352772 12.58538739 21.06932488 8.45336914 21.04101562 C6.67173875 21.02601412 4.89014474 21.00560621 3.10864258 20.97949219 C0.53425059 20.94272546 -2.03964936 20.9259977 -4.61425781 20.9128418 C-5.39900986 20.89735794 -6.1837619 20.88187408 -6.99229431 20.86592102 C-12.73527539 20.864209 -17.47149633 22.11199873 -22.80566406 24.20581055 C-23.13566406 26.51581055 -23.46566406 28.82581055 -23.80566406 31.20581055 C-22.82666138 31.47083374 -22.82666138 31.47083374 -21.82788086 31.74121094 C-14.74530987 33.66484899 -7.6744411 35.62531375 -0.61816406 37.64331055 C0.40986328 37.93012695 1.43789063 38.21694336 2.49707031 38.51245117 C12.80477434 41.47352546 21.02456598 44.9511556 27.19433594 54.20581055 C29.37849109 60.758276 29.53989784 70.38051646 26.63183594 76.76831055 C21.59770804 84.85448811 13.81099863 88.53772149 4.81591797 90.80541992 C-2.52561011 92.26306685 -9.69187948 92.5137884 -17.16601562 92.46655273 C-19.17120856 92.45586096 -21.17549862 92.46649504 -23.18066406 92.47924805 C-31.56782049 92.46270533 -39.56092872 91.74632505 -47.80566406 90.20581055 C-47.66363069 87.83052904 -47.51714794 85.45565804 -47.36816406 83.08081055 C-47.30918945 82.08307617 -47.30918945 82.08307617 -47.24902344 81.06518555 C-46.99351206 77.05562238 -46.53783993 73.15586858 -45.80566406 69.20581055 C-44.67773438 69.35018555 -43.54980469 69.49456055 -42.38769531 69.64331055 C-18.29452641 72.76588076 -18.29452641 72.76588076 5.19433594 68.20581055 C5.52831381 65.3316793 5.52831381 65.3316793 5.19433594 62.20581055 C2.06471956 59.11657631 -1.45278273 58.25247841 -5.62597656 57.11987305 C-6.98015121 56.74229751 -8.33431761 56.36469237 -9.68847656 55.98706055 C-11.80032534 55.40959428 -13.91307109 54.8355736 -16.02636719 54.26342773 C-38.46958971 48.15118604 -38.46958971 48.15118604 -44.74707031 39.1706543 C-47.68774737 33.71249725 -47.56306979 27.02758258 -46.37988281 21.05737305 C-44.26868643 14.50359778 -40.14607357 9.22642579 -34.25488281 5.6628418 C-23.05991646 0.26328943 -12.18750933 -0.0945625 0 0 Z " fill="#DF6759" transform="translate(896.8056640625,200.794189453125)"/>
<path d="M0 0 C15.51 0 31.02 0 47 0 C47.04898438 6.87199219 47.09796875 13.74398437 47.1484375 20.82421875 C47.18382085 25.17644707 47.21977917 29.52865538 47.2578125 33.88085938 C47.31813219 40.78960311 47.37631672 47.69831883 47.421875 54.60717773 C47.45873606 60.17692671 47.50509856 65.74652282 47.55806351 71.31614113 C47.57660303 73.44158053 47.59171262 75.56705269 47.60334396 77.69254112 C47.62021375 80.66847784 47.64925104 83.64406479 47.68115234 86.61987305 C47.68331253 87.49956757 47.68547272 88.37926208 47.68769836 89.28561401 C47.74683989 93.60134462 47.89242139 97.11406583 50 101 C54.32475807 105.03644087 58.8232364 105.21474227 64.4921875 105.16796875 C67.96172357 104.93558549 71.26060018 104.23279996 74.640625 103.4375 C77 103 77 103 82 103 C82.99 113.395 82.99 113.395 84 124 C69.67759773 127.18275606 50.28051895 131.34167827 37 123 C29.20375837 116.74829681 26.35917817 107.81131773 25.20471382 98.17108154 C24.88587097 94.78961062 24.86882883 91.4160972 24.88647461 88.0234375 C24.88632858 87.27124435 24.88618256 86.51905121 24.8860321 85.74406433 C24.88672205 83.28767897 24.89447091 80.83137192 24.90234375 78.375 C24.9042112 76.66007529 24.90563356 74.94515004 24.90663147 73.23022461 C24.91043092 68.73893739 24.92023897 64.24768302 24.93133545 59.75640869 C24.94160514 55.16443323 24.94614095 50.57245241 24.95117188 45.98046875 C24.96186378 36.98696248 24.97943948 27.99348913 25 19 C16.75 19 8.5 19 0 19 C0 12.73 0 6.46 0 0 Z " fill="#DF6759" transform="translate(544,166)"/>
<path d="M0 0 C1.00112823 -0.01094193 2.00225647 -0.02188385 3.03372192 -0.03315735 C5.15019587 -0.04901498 7.26677256 -0.05422109 9.38330078 -0.04956055 C12.61534908 -0.05077469 15.84286516 -0.11052138 19.07421875 -0.17382812 C21.13280144 -0.18197079 23.19140138 -0.18664224 25.25 -0.1875 C26.69401688 -0.22287117 26.69401688 -0.22287117 28.16720581 -0.25895691 C34.71579442 -0.16961603 34.71579442 -0.16961603 37.70709229 2.14511108 C42.40581119 7.44557494 43.04991034 11.96044809 42.9765625 18.91015625 C42.61649083 23.39819239 40.78503642 26.1542595 38.28857422 29.75708008 C34.31809618 32.70601992 30.34077722 32.26687783 25.515625 32.2734375 C24.51449677 32.28437943 23.51336853 32.29532135 22.48190308 32.30659485 C20.36542913 32.32245248 18.24885244 32.32765859 16.13232422 32.32299805 C12.90027592 32.32421219 9.67275984 32.38395888 6.44140625 32.44726562 C4.38282356 32.45540829 2.32422362 32.46007974 0.265625 32.4609375 C-0.69705292 32.48451828 -1.65973083 32.50809906 -2.65158081 32.53239441 C-9.20016942 32.44305353 -9.20016942 32.44305353 -12.19146729 30.12832642 C-16.89018619 24.82786256 -17.53428534 20.31298941 -17.4609375 13.36328125 C-17.10086583 8.87524511 -15.26941142 6.119178 -12.77294922 2.51635742 C-8.80247118 -0.43258242 -4.82515222 0.00655967 0 0 Z " fill="#E06658" transform="translate(241.2421875,260.36328125)"/>
<path d="M0 0 C6.28159965 4.28987293 6.28159965 4.28987293 6.95809937 7.80633545 C7.1436713 10.46912737 7.19550586 13.10411072 7.19921875 15.7734375 C7.21016068 16.75236969 7.2211026 17.73130188 7.2323761 18.73989868 C7.24823238 20.80929299 7.25344022 22.87879238 7.2487793 24.94824219 C7.24999343 28.10790219 7.3097398 31.26292564 7.37304688 34.421875 C7.38118962 36.43488452 7.385861 38.44791169 7.38671875 40.4609375 C7.41029953 41.40174164 7.43388031 42.34254578 7.45817566 43.31185913 C7.36884658 49.71514478 7.36884658 49.71514478 5.05410767 52.68585205 C-0.25383446 57.39050188 -4.74866854 58.04223041 -11.7109375 57.96875 C-16.20213899 57.60842438 -18.96215642 55.78180621 -22.55786133 53.26708984 C-25.48092033 49.35271937 -25.06758869 45.49314583 -25.07421875 40.7265625 C-25.08516068 39.74763031 -25.0961026 38.76869812 -25.1073761 37.76010132 C-25.12323238 35.69070701 -25.12844022 33.62120762 -25.1237793 31.55175781 C-25.12499343 28.39209781 -25.1847398 25.23707436 -25.24804688 22.078125 C-25.25618962 20.06511548 -25.260861 18.05208831 -25.26171875 16.0390625 C-25.28529953 15.09825836 -25.30888031 14.15745422 -25.33317566 13.18814087 C-25.24384658 6.78485522 -25.24384658 6.78485522 -22.92910767 3.81414795 C-16.36683362 -2.00226842 -8.23089411 -2.9930524 0 0 Z " fill="#E0675A" transform="translate(34.4375,234.25)"/>
<path d="" fill="#E7332B" transform="translate(0,0)"/>
<path d="M0 0 C2 1 2 1 2 1 Z " fill="#E9746A" transform="translate(450,241)"/>
<path d="M0 0 C2 1 2 1 2 1 Z " fill="#E9746A" transform="translate(450,188)"/>
<path d="" fill="#E7332B" transform="translate(0,0)"/>
<path d="" fill="#D2695A" transform="translate(0,0)"/>
<path d="" fill="#FF7F7F" transform="translate(0,0)"/>
<path d="" fill="#CB655B" transform="translate(0,0)"/>
<path d="" fill="#000000" transform="translate(0,0)"/>
<path d="" fill="#D46A55" transform="translate(0,0)"/>
<path d="" fill="#D47163" transform="translate(0,0)"/>
<path d="" fill="#D05C5C" transform="translate(0,0)"/>
<path d="" fill="#CC6666" transform="translate(0,0)"/>
<path d="" fill="#FF7F7F" transform="translate(0,0)"/>
<path d="" fill="#D46A6A" transform="translate(0,0)"/>
<path d="" fill="#D46A55" transform="translate(0,0)"/>
<path d="" fill="#C4624E" transform="translate(0,0)"/>
<path d="" fill="#CC664C" transform="translate(0,0)"/>
<path d="" fill="#CC664C" transform="translate(0,0)"/>
<path d="" fill="#C4624E" transform="translate(0,0)"/>
<path d="" fill="#D46A55" transform="translate(0,0)"/>
<path d="" fill="#D46A6A" transform="translate(0,0)"/>
<path d="" fill="#FF7F7F" transform="translate(0,0)"/>
<path d="" fill="#CC6666" transform="translate(0,0)"/>
<path d="" fill="#D47163" transform="translate(0,0)"/>
<path d="" fill="#D05C5C" transform="translate(0,0)"/>
<path d="" fill="#D46A55" transform="translate(0,0)"/>
<path d="" fill="#CB655B" transform="translate(0,0)"/>
<path d="" fill="#D2695A" transform="translate(0,0)"/>
<path d="" fill="#FF7F7F" transform="translate(0,0)"/>
</svg>
